<svg viewBox="0 0 144 16" fill="none" xmlns="http://www.w3.org/2000/svg">
    <path d="M112.285 0.0927866C114.248 0.0670561 116.211 0.0590028 118.174 0.0686272C118.687 0.656403 119.194 1.34406 119.566 2.01772L119.506 2.13733C119.139 1.65002 118.471 0.284585 117.795 0.202385C117.775 0.200028 117.754 0.206215 117.734 0.208131C117.658 0.307124 117.637 0.296961 117.645 0.425417C117.67 0.864113 117.619 1.0789 117.295 1.40622C116.486 2.22543 115.444 2.31381 114.444 2.78565C112.871 3.5284 111.337 5.26345 111.353 6.99569C111.354 7.0365 111.356 7.0773 111.356 7.11826C111.358 7.27205 111.337 7.41701 111.319 7.56918C111.304 7.69012 111.308 7.64224 111.316 7.78867C110.313 6.73259 110.287 5.42048 110.265 4.07272C110.262 3.90081 110.122 3.79003 110.014 3.65436C109.184 4.73784 108.544 6.00472 107.636 7.02501L107.545 6.9322C108.05 6.05879 108.712 5.21425 109.289 4.37972C110.28 2.94755 111.255 1.49947 112.285 0.0927866Z" fill="url(#paint0_linear_325_617)"/>
    <path d="M134.727 15.1169C134.871 15.0996 134.925 15.0855 135.06 15.0214C135.807 13.7918 137.898 8.97131 137.906 7.64962C137.815 7.4923 137.745 7.38093 137.747 7.19458C137.747 7.15687 137.755 7.1196 137.758 7.08203L141.962 13.0152C142.638 13.9664 143.414 14.9111 144 15.9109C141.127 15.9969 138.215 15.9974 135.34 15.9526C135.138 15.6837 134.889 15.4068 134.727 15.1169Z" fill="url(#paint1_linear_325_617)"/>
    <path d="M129.527 7.87971C128.951 7.22241 124.468 0.786628 124.406 0.490531C124.37 0.319796 124.417 0.280906 124.508 0.140813C125.084 -0.0966548 131.72 0.0278236 132.744 0.0740796C133.032 0.3799 133.29 0.694854 133.493 1.05768C133.448 1.30546 133.548 1.29029 133.568 1.4871C133.576 1.56635 133.428 1.84816 133.393 1.93139C132.9 3.09133 132.275 3.74039 131.691 4.78174C131.128 5.78361 130.751 6.84219 130.039 7.77409L129.668 7.75332L129.527 7.87971Z" fill="url(#paint2_linear_325_617)"/>
    <path d="M107.545 6.93239L107.636 7.02519C108.544 6.00491 109.184 4.73802 110.014 3.65454C110.122 3.79022 110.262 3.90099 110.265 4.07291C110.287 5.42067 110.313 6.73278 111.315 7.78886C111.635 7.94943 112.153 8.33303 112.49 8.34791C110.745 10.8678 109.018 13.4172 107.198 15.8885C106.008 15.945 102.554 16.0597 101.532 15.83C101.348 15.7885 101.411 15.8289 101.315 15.6844C101.337 15.5649 101.361 15.473 101.431 15.3691C101.703 14.9624 102.045 14.5879 102.334 14.1891L105.041 10.4246C105.857 9.29203 106.624 7.98066 107.545 6.93239Z" fill="url(#paint3_linear_325_617)"/>
    <path d="M133.493 1.05762C134.945 3.04236 136.351 5.06878 137.758 7.0821C137.755 7.11966 137.748 7.15693 137.747 7.19465C137.745 7.381 137.815 7.49236 137.906 7.64969C137.898 8.97138 135.807 13.7919 135.06 15.0215C134.925 15.0856 134.871 15.0997 134.727 15.117C133.025 12.6851 131.18 10.3449 129.527 7.87965L129.669 7.75325L130.039 7.77402C130.751 6.84213 131.128 5.78354 131.691 4.78167C132.276 3.74032 132.9 3.09126 133.393 1.93133C133.428 1.84809 133.576 1.56628 133.568 1.48703C133.548 1.29022 133.448 1.3054 133.493 1.05762Z" fill="url(#paint4_linear_325_617)"/>
    <path d="M21.978 0.103081C23.5643 0.084814 25.1507 0.0832909 26.7371 0.0985132L26.7481 15.9138L21.968 15.9229L21.978 0.103081Z" fill="#FEFEFE"/>
    <path d="M86.2262 0.0795613C89.3393 0.0281493 92.4592 0.0665959 95.5731 0.0646808C97.4221 0.0635023 99.336 -0.0415291 101.175 0.0872218C101.408 0.103426 101.489 0.128176 101.664 0.275341C101.762 0.82511 100.536 2.93285 100.31 3.59693L100.277 3.69622C98.6597 3.69887 97.0429 3.6812 95.4263 3.64319C95.4389 6.24797 95.4349 8.8527 95.4145 11.4574L95.4068 15.9862L90.6785 15.9772C90.6655 11.8721 90.6745 7.7671 90.7056 3.6622C88.7064 3.65188 86.6969 3.73026 84.6997 3.65851C85.123 2.44334 85.6774 1.24848 86.2262 0.0795613Z" fill="#FEFEFE"/>
    <path d="M111.316 7.78872C111.308 7.64229 111.304 7.69017 111.319 7.56923C111.337 7.41705 111.358 7.2721 111.356 7.1183C111.355 7.07735 111.354 7.03654 111.353 6.99574C111.337 5.26349 112.871 3.52845 114.444 2.7857C115.444 2.31386 116.486 2.22548 117.295 1.40627C117.619 1.07894 117.67 0.86416 117.645 0.425464C117.637 0.297008 117.658 0.307171 117.734 0.208178C117.754 0.206263 117.775 0.200075 117.795 0.202432C118.471 0.284632 119.139 1.65007 119.506 2.13738L119.566 2.01777C121.107 3.85107 122.451 6.04955 123.846 8.001C125.541 10.3729 127.413 12.6854 128.928 15.1649C129.056 15.3743 129.142 15.5362 129.129 15.7837C128.959 15.9065 128.861 15.9014 128.647 15.9112C126.873 15.993 125.056 15.9187 123.279 15.9196L113.162 15.912C112.876 15.9283 112.583 15.9068 112.297 15.899C112.552 15.2377 114.429 12.4366 114.989 12.0916C115.591 11.9829 116.306 12.0391 116.921 12.0362L120.66 12.0225C120.02 11.2672 119.473 10.4355 118.904 9.63145C117.674 7.89154 116.492 6.11172 115.23 4.39347C114.306 5.70474 113.392 7.02284 112.49 8.34777C112.153 8.33289 111.635 7.94929 111.316 7.78872Z" fill="url(#paint5_linear_325_617)"/>
    <path d="M112.297 15.899C112.552 15.2377 114.429 12.4366 114.989 12.0916C115.361 12.1118 115.733 12.1366 116.104 12.1661V12.1687L116.147 12.1904C115.506 12.249 115.114 12.1684 114.67 12.669C114.269 13.1204 113.953 13.676 113.628 14.1779C113.645 14.4382 113.756 15.0331 113.681 15.2586C113.612 15.4651 113.437 15.5213 113.474 15.7602C113.954 15.7944 114.433 15.7922 114.914 15.7937L115.028 15.6396L114.994 15.8216L115.033 15.8135C114.422 15.8233 113.758 15.785 113.162 15.9119C112.876 15.9283 112.583 15.9068 112.297 15.899Z" fill="#C2C368"/>
    <path d="M14.3521 0.0873282C15.8878 0.0671465 17.4259 0.0870347 18.9617 0.0893917L18.9619 15.9168L14.1832 15.934L14.2058 11.0303C14.1897 9.47436 14.2107 7.91889 14.2687 6.36386C12.7294 8.29139 11.108 10.155 9.40434 11.9547C7.72315 10.2357 6.28177 8.27627 4.76145 6.42883C4.78294 9.58357 4.78509 12.7384 4.76789 15.8932C3.18367 15.8914 1.59954 15.9015 0.0154917 15.9235C-0.0375928 10.6489 0.0655379 5.37201 0.0317739 0.0964633C1.58485 0.0858568 3.13791 0.0869832 4.69095 0.0998485L9.51076 6.06025C11.1608 4.25273 12.8683 2.03347 14.3521 0.0873282Z" fill="#FEFEFE"/>
    <path d="M68.5636 0.0795018C70.2748 0.0132112 72.0103 0.0687496 73.7243 0.0683077C75.3454 0.0678657 77.0411 -0.0326029 78.6456 0.169657C79.0699 0.220234 79.4876 0.301109 79.8988 0.412281C80.3099 0.523452 80.7097 0.663546 81.0982 0.832562C82.4662 1.44229 83.5625 2.51045 84.0664 3.86985C84.5919 5.28773 84.5238 6.98491 83.825 8.33797C83.1173 9.70813 82.0787 10.4783 80.5715 10.9685C82.0849 12.6177 83.7692 14.1872 85.17 15.9193L84.3034 15.94C82.841 15.9492 81.3787 15.9453 79.9164 15.9284C78.5114 14.5952 77.1905 13.0347 75.9724 11.545C75.1378 11.5871 74.2966 11.5691 73.4608 11.5703L73.4467 15.9521C71.8178 15.9702 70.1876 15.9549 68.5586 15.953L68.5636 0.0795018ZM73.4344 3.58553C73.4401 5.14277 73.4705 6.70398 73.4065 8.26019C74.6699 8.26417 76.7928 8.46452 77.9521 8.10802C78.3087 7.99842 78.5854 7.80323 78.8798 7.59169C79.3754 7.10497 79.6415 6.68366 79.6426 5.99099C79.6434 5.3823 79.4924 4.80366 79.0159 4.36997C77.7388 3.20753 75.0888 3.70058 73.4344 3.58553Z" fill="#FEFEFE"/>
    <path d="M41.698 0.0664858C43.4331 0.0387911 45.1752 0.0747324 46.9108 0.0819507C46.3806 0.925461 45.6752 1.71683 45.0498 2.50038C43.5984 4.31836 42.0685 6.09465 40.6598 7.94092C41.6288 9.10498 42.5642 10.2925 43.5405 11.452C44.7224 12.8558 45.9775 14.2637 47.0239 15.7607C47.3513 14.9771 47.7944 14.225 48.1931 13.4718C48.8542 12.2436 49.4958 11.0064 50.1181 9.76022C51.7398 6.5441 53.2298 3.26257 54.9154 0.0756164L59.5752 0.0785656C60.7713 2.65565 62.083 5.19634 63.3766 7.7307C64.5491 10.5027 66.2682 13.1058 67.3334 15.9204C65.6854 15.9361 64.0373 15.9361 62.3891 15.9204C61.8942 14.9018 61.4111 13.8781 60.9401 12.8494C58.4097 12.8798 55.8794 12.8774 53.349 12.8423C52.8877 13.904 52.3757 14.9435 51.8679 15.9858C48.5473 16.0328 45.2095 15.9481 41.8861 15.9602C41.2074 15.2693 40.6316 14.4879 40.0209 13.7435C39.3057 12.872 38.5584 12.0266 37.8788 11.1293C36.3832 12.5759 35.2277 14.3989 33.8257 15.9397L28.3474 15.9261C29.0712 14.9922 29.8814 14.1 30.6433 13.1919C32.1194 11.4321 33.5842 9.67846 35.1365 7.9773C34.3321 7.14852 33.6032 6.22163 32.8536 5.34733C31.3743 3.62231 29.9047 1.89935 28.5091 0.112301C30.2813 0.0012272 32.1221 0.0881421 33.9003 0.102873C35.1803 1.71712 36.6596 3.24519 37.8302 4.92764C39.21 3.38042 40.3118 1.6115 41.698 0.0664858ZM57.0981 4.28286C56.3649 6.10187 55.5654 7.88346 54.7466 9.66933C55.5886 9.66505 56.4311 9.65415 57.2729 9.65975L59.5101 9.66683C59.1727 8.84129 57.4876 4.71817 57.0981 4.28286Z" fill="#FEFEFE"/>
    <defs>
        <linearGradient id="paint0_linear_325_617" x1="113.555" y1="0.0646973" x2="113.555" y2="7.78867" gradientUnits="userSpaceOnUse">
            <stop stop-color="#F6B767"/>
            <stop offset="1" stop-color="#D0BE66"/>
        </linearGradient>
        <linearGradient id="paint1_linear_325_617" x1="136.332" y1="11.6347" x2="143.912" y2="14.7236" gradientUnits="userSpaceOnUse">
            <stop stop-color="#9F6CD3"/>
            <stop offset="1" stop-color="#4F80E9"/>
        </linearGradient>
        <linearGradient id="paint2_linear_325_617" x1="124.988" y1="-0.311831" x2="132.006" y2="5.14024" gradientUnits="userSpaceOnUse">
            <stop stop-color="#FF719D"/>
            <stop offset="1" stop-color="#E25DAA"/>
        </linearGradient>
        <linearGradient id="paint3_linear_325_617" x1="106.903" y1="3.65454" x2="106.903" y2="15.9676" gradientUnits="userSpaceOnUse">
            <stop stop-color="#D9BB65"/>
            <stop offset="1" stop-color="#9FD06B"/>
        </linearGradient>
        <linearGradient id="paint4_linear_325_617" x1="130.168" y1="6.57572" x2="137.502" y2="10.0594" gradientUnits="userSpaceOnUse">
            <stop stop-color="#E65DA9"/>
            <stop offset="1" stop-color="#9F68D3"/>
        </linearGradient>
        <linearGradient id="paint5_linear_325_617" x1="113.097" y1="2.0074" x2="111.752" y2="7.69972" gradientUnits="userSpaceOnUse">
            <stop stop-color="#F0B867"/>
            <stop offset="1" stop-color="#C2C368"/>
        </linearGradient>
    </defs>
</svg>
