<svg viewBox="0 0 643 139" fill="none" xmlns="http://www.w3.org/2000/svg">
<g filter="url(#filter0_d_1180_8419)">
<path d="M480.13 38.3645C487.859 38.2632 495.589 38.2315 503.319 38.2694C505.335 40.5837 507.334 43.2914 508.797 45.9439L508.561 46.4149C507.118 44.4961 504.488 39.1197 501.825 38.7961C501.745 38.7868 501.665 38.8111 501.585 38.8187C501.284 39.2085 501.203 39.1684 501.233 39.6742C501.334 41.4016 501.13 42.2473 499.857 43.5362C496.672 46.7618 492.568 47.1098 488.631 48.9677C482.436 51.8922 476.396 58.724 476.462 65.5447C476.463 65.7054 476.47 65.866 476.471 66.0273C476.479 66.6329 476.398 67.2036 476.324 67.8028C476.266 68.279 476.284 68.0905 476.312 68.6671C472.365 64.5087 472.264 59.3423 472.175 54.0355C472.164 53.3586 471.614 52.9224 471.189 52.3882C467.92 56.6544 465.401 61.6428 461.824 65.6601L461.466 65.2947C463.453 61.8556 466.06 58.5303 468.333 55.2443C472.233 49.6051 476.073 43.9033 480.13 38.3645Z" fill="url(#paint0_linear_1180_8419)"/>
<path d="M568.486 97.522C569.053 97.4541 569.267 97.3984 569.8 97.1461C572.74 92.3045 580.972 73.3238 581.005 68.1197C580.647 67.5002 580.37 67.0617 580.379 66.3279C580.38 66.1794 580.408 66.0327 580.422 65.8848L596.976 89.2465C599.638 92.9918 602.691 96.7117 605 100.648C593.685 100.987 582.221 100.989 570.902 100.813C570.107 99.754 569.126 98.6635 568.486 97.522Z" fill="url(#paint1_linear_1180_8419)"/>
<path d="M548.015 69.0264C545.748 66.4382 528.097 41.0973 527.851 39.9315C527.71 39.2592 527.897 39.1061 528.253 38.5544C530.522 37.6194 556.65 38.1096 560.682 38.2917C561.817 39.4959 562.831 40.736 563.633 42.1646C563.456 43.1403 563.848 43.0805 563.927 43.8554C563.959 44.1675 563.377 45.2771 563.237 45.6049C561.297 50.1721 558.838 52.7278 556.535 56.8281C554.318 60.773 552.835 64.9411 550.033 68.6105L548.573 68.5287L548.015 69.0264Z" fill="url(#paint2_linear_1180_8419)"/>
<path d="M461.463 65.2952L461.821 65.6606C465.397 61.6432 467.916 56.6549 471.186 52.3887C471.61 52.9229 472.161 53.3591 472.172 54.036C472.261 59.3428 472.362 64.5092 476.309 68.6676C477.567 69.2998 479.607 70.8102 480.934 70.8688C474.061 80.791 467.264 90.8292 460.095 100.56C455.409 100.782 441.809 101.234 437.788 100.33C437.061 100.166 437.312 100.325 436.934 99.7561C437.02 99.2857 437.113 98.9237 437.387 98.5148C438.461 96.9133 439.807 95.4388 440.946 93.8686L451.605 79.0457C454.815 74.5863 457.835 69.4228 461.463 65.2952Z" fill="url(#paint3_linear_1180_8419)"/>
<path d="M563.633 42.168C569.35 49.9829 574.883 57.9619 580.425 65.8894C580.411 66.0373 580.383 66.184 580.382 66.3325C580.374 67.0663 580.65 67.5048 581.009 68.1243C580.975 73.3284 572.743 92.3091 569.803 97.1507C569.27 97.403 569.056 97.4587 568.489 97.5266C561.788 87.9513 554.522 78.7367 548.014 69.0297L548.573 68.532L550.033 68.6138C552.835 64.9445 554.318 60.7763 556.535 56.8314C558.838 52.7311 561.297 50.1754 563.237 45.6082C563.376 45.2805 563.959 44.1708 563.927 43.8588C563.848 43.0838 563.456 43.1436 563.633 42.168Z" fill="url(#paint4_linear_1180_8419)"/>
<path d="M124.542 38.4046C130.788 38.3326 137.034 38.3266 143.281 38.3866L143.324 100.659L124.502 100.695L124.542 38.4046Z" fill="#FEFEFE"/>
<path d="M377.514 38.3137C389.772 38.1113 402.057 38.2627 414.318 38.2552C421.598 38.2505 429.134 37.837 436.376 38.3439C437.294 38.4077 437.612 38.5052 438.3 39.0846C438.687 41.2493 433.859 49.5486 432.969 52.1634L432.838 52.5544C426.471 52.5648 420.105 52.4952 413.74 52.3455C413.789 62.6018 413.774 72.858 413.693 83.1139L413.663 100.946L395.045 100.911C394.994 84.7469 395.029 68.5834 395.152 52.4204C387.28 52.3798 379.368 52.6884 371.504 52.4059C373.171 47.6211 375.353 42.9164 377.514 38.3137Z" fill="#FEFEFE"/>
<path d="M476.305 68.6661C476.277 68.0895 476.258 68.278 476.316 67.8018C476.391 67.2026 476.471 66.6319 476.464 66.0263C476.462 65.865 476.455 65.7044 476.454 65.5437C476.388 58.723 482.428 51.8912 488.623 48.9667C492.56 47.1088 496.664 46.7608 499.85 43.5352C501.123 42.2463 501.326 41.4006 501.225 39.6732C501.196 39.1674 501.276 39.2075 501.577 38.8177C501.657 38.8101 501.737 38.7858 501.817 38.795C504.48 39.1187 507.11 44.4951 508.553 46.4139L508.79 45.9429C514.857 53.1615 520.15 61.8181 525.642 69.5019C532.317 78.8412 539.687 87.9466 545.653 97.7099C546.156 98.5342 546.496 99.1716 546.445 100.146C545.777 100.63 545.391 100.61 544.545 100.648C537.564 100.97 530.408 100.678 523.412 100.681L483.575 100.651C482.45 100.716 481.296 100.631 480.168 100.6C481.172 97.9965 488.564 86.967 490.77 85.6085C493.139 85.1804 495.953 85.402 498.374 85.3904L513.098 85.3365C510.58 82.3626 508.424 79.0877 506.185 75.9218C501.342 69.0709 496.687 62.0629 491.718 55.2972C488.078 60.4604 484.482 65.6504 480.93 70.8673C479.603 70.8087 477.562 69.2983 476.305 68.6661Z" fill="url(#paint5_linear_1180_8419)"/>
<path d="M480.169 100.603C481.173 97.9993 488.566 86.9698 490.771 85.6113C492.236 85.691 493.699 85.7888 495.162 85.9048V85.9153L495.332 86.0005C492.806 86.2314 491.265 85.9141 489.514 87.8851C487.935 89.6623 486.691 91.8502 485.412 93.8264C485.477 94.8514 485.917 97.1936 485.62 98.0816C485.349 98.8948 484.66 99.1159 484.804 100.057C486.694 100.191 488.582 100.183 490.475 100.188L490.922 99.5816L490.792 100.299L490.943 100.267C488.537 100.305 485.925 100.154 483.576 100.654C482.451 100.718 481.297 100.634 480.169 100.603Z" fill="#C2C368"/>
<path d="M94.5118 38.3439C100.559 38.2644 106.615 38.3427 112.662 38.352L112.663 100.672L93.8468 100.74L93.9358 81.4317C93.8724 75.3053 93.955 69.1806 94.1836 63.0577C88.1226 70.6474 81.7381 77.9853 75.0301 85.0715C68.4104 78.303 62.7349 70.5878 56.7487 63.3135C56.8333 75.7353 56.8418 88.1573 56.774 100.579C50.5362 100.572 44.2987 100.612 38.0615 100.699C37.8525 79.93 38.2585 59.1523 38.1256 38.3798C44.2408 38.3381 50.356 38.3425 56.4711 38.3932L75.4491 61.8622C81.9461 54.7451 88.6695 46.0068 94.5118 38.3439Z" fill="#FEFEFE"/>
<path d="M307.97 38.3138C314.708 38.0528 321.541 38.2714 328.29 38.2697C334.673 38.268 341.35 37.8724 347.667 38.6688C349.338 38.8679 350.983 39.1863 352.602 39.6241C354.221 40.0618 355.795 40.6134 357.325 41.2789C362.711 43.6797 367.028 47.8856 369.012 53.2383C371.081 58.8212 370.813 65.5038 368.062 70.8315C365.275 76.2265 361.185 79.2589 355.251 81.1893C361.21 87.6829 367.842 93.8627 373.357 100.683L369.945 100.765C364.187 100.801 358.429 100.785 352.671 100.719C347.139 95.4693 341.938 89.325 337.142 83.459C333.856 83.6249 330.543 83.5541 327.253 83.5588L327.197 100.812C320.783 100.883 314.364 100.823 307.95 100.816L307.97 38.3138ZM327.148 52.1188C327.171 58.2504 327.291 64.3977 327.038 70.5252C332.013 70.5409 340.372 71.3298 344.937 69.9261C346.341 69.4945 347.431 68.7259 348.59 67.893C350.541 65.9765 351.589 64.3176 351.593 61.5903C351.596 59.1935 351.002 56.9151 349.126 55.2075C344.097 50.6304 333.662 52.5718 327.148 52.1188Z" fill="#FEFEFE"/>
<path d="M202.187 38.2633C209.019 38.1543 215.879 38.2958 222.713 38.3242C220.625 41.6456 217.848 44.7616 215.385 47.8468C209.67 55.0051 203.646 61.9992 198.1 69.2689C201.915 73.8524 205.598 78.5281 209.442 83.0936C214.096 88.6214 219.038 94.1649 223.158 100.059C224.447 96.974 226.192 94.0123 227.762 91.0466C230.365 86.2106 232.891 81.3392 235.342 76.4324C241.727 63.7689 247.594 50.8479 254.231 38.2993L272.579 38.3109C277.289 48.4582 282.453 58.4622 287.547 68.4412C292.164 79.3558 298.932 89.6058 303.127 100.688C296.638 100.75 290.148 100.75 283.659 100.688C281.71 96.6772 279.808 92.6465 277.953 88.5959C267.99 88.7158 258.026 88.7065 248.063 88.5681C246.247 92.7484 244.231 96.8418 242.231 100.946C229.156 101.131 216.014 100.797 202.928 100.845C200.255 98.1243 197.989 95.0477 195.584 92.1168C192.768 88.6852 189.825 85.3564 187.149 81.8233C181.26 87.5193 176.71 94.6974 171.19 100.764L149.619 100.711C152.469 97.0332 155.659 93.5204 158.659 89.9445C164.472 83.0153 170.239 76.1105 176.352 69.4122C173.184 66.1489 170.314 62.4992 167.362 59.0567C161.538 52.2644 155.751 45.4802 150.256 38.4437C157.234 38.0064 164.482 38.3486 171.484 38.4066C176.524 44.7627 182.348 50.7795 186.958 57.4041C192.391 51.312 196.729 44.3468 202.187 38.2633ZM262.825 54.8653C259.938 62.0277 256.79 69.0427 253.566 76.0745C256.882 76.0577 260.199 76.0148 263.514 76.0368L272.322 76.0647C270.994 72.8141 264.359 56.5793 262.825 54.8653Z" fill="#FEFEFE"/>
</g>
<defs>
<filter id="filter0_d_1180_8419" x="0.300488" y="0.299999" width="642.399" height="138.402" filterUnits="userSpaceOnUse" color-interpolation-filters="sRGB">
<feFlood flood-opacity="0" result="BackgroundImageFix"/>
<feColorMatrix in="SourceAlpha" type="matrix" values="0 0 0 0 0 0 0 0 0 0 0 0 0 0 0 0 0 0 127 0" result="hardAlpha"/>
<feOffset/>
<feGaussianBlur stdDeviation="18.85"/>
<feComposite in2="hardAlpha" operator="out"/>
<feColorMatrix type="matrix" values="0 0 0 0 0.445264 0 0 0 0 0.445264 0 0 0 0 0.445264 0 0 0 1 0"/>
<feBlend mode="normal" in2="BackgroundImageFix" result="effect1_dropShadow_1180_8419"/>
<feBlend mode="normal" in="SourceGraphic" in2="effect1_dropShadow_1180_8419" result="shape"/>
</filter>
<linearGradient id="paint0_linear_1180_8419" x1="485.132" y1="38.2539" x2="485.132" y2="68.6671" gradientUnits="userSpaceOnUse">
<stop stop-color="#F6B767"/>
<stop offset="1" stop-color="#D0BE66"/>
</linearGradient>
<linearGradient id="paint1_linear_1180_8419" x1="574.807" y1="83.8109" x2="604.653" y2="95.9735" gradientUnits="userSpaceOnUse">
<stop stop-color="#9F6CD3"/>
<stop offset="1" stop-color="#4F80E9"/>
</linearGradient>
<linearGradient id="paint2_linear_1180_8419" x1="530.143" y1="36.7722" x2="557.776" y2="58.2397" gradientUnits="userSpaceOnUse">
<stop stop-color="#FF719D"/>
<stop offset="1" stop-color="#E25DAA"/>
</linearGradient>
<linearGradient id="paint3_linear_1180_8419" x1="458.934" y1="52.3887" x2="458.934" y2="100.871" gradientUnits="userSpaceOnUse">
<stop stop-color="#D9BB65"/>
<stop offset="1" stop-color="#9FD06B"/>
</linearGradient>
<linearGradient id="paint4_linear_1180_8419" x1="550.54" y1="63.8955" x2="579.416" y2="77.6125" gradientUnits="userSpaceOnUse">
<stop stop-color="#E65DA9"/>
<stop offset="1" stop-color="#9F68D3"/>
</linearGradient>
<linearGradient id="paint5_linear_1180_8419" x1="483.32" y1="45.9021" x2="478.022" y2="68.3156" gradientUnits="userSpaceOnUse">
<stop stop-color="#F0B867"/>
<stop offset="1" stop-color="#C2C368"/>
</linearGradient>
</defs>
</svg>
