<svg viewBox="0 0 24 24" fill="none" xmlns="http://www.w3.org/2000/svg">
    <path d="M4.07003 11.68L4.11003 11.76C4.27003 12.075 4.72503 12.075 4.88503 11.76L4.92503 11.68C5.09003 11.355 5.35503 11.095 5.68003 10.925L5.76003 10.885C6.07503 10.725 6.07503 10.27 5.76003 10.11L5.68003 10.07C5.35503 9.905 5.09503 9.64 4.92503 9.315L4.88503 9.235C4.72503 8.92 4.27003 8.92 4.11003 9.235L4.07003 9.315C3.90503 9.64 3.64003 9.9 3.31503 10.07L3.23503 10.11C2.92003 10.27 2.92003 10.725 3.23503 10.885L3.31503 10.925C3.64003 11.09 3.90003 11.355 4.07003 11.68Z" fill="white"/>
    <path d="M4.93503 6.46L5.08503 6.535C5.68003 6.84 6.16003 7.32 6.46503 7.915L6.54003 8.065C6.83503 8.645 7.66503 8.645 7.96003 8.065L8.03503 7.915C8.34003 7.32 8.82003 6.84 9.41503 6.535L9.56503 6.46C10.145 6.165 10.145 5.335 9.56503 5.04L9.41503 4.965C8.82003 4.66 8.34003 4.18 8.03503 3.585L7.96003 3.435C7.66503 2.855 6.83503 2.855 6.54003 3.435L6.46503 3.585C6.16003 4.18 5.68003 4.66 5.08503 4.965L4.93503 5.04C4.35503 5.335 4.35503 6.165 4.93503 6.46Z" fill="white"/>
    <path d="M19.065 17.54L18.915 17.465C18.32 17.16 17.84 16.68 17.535 16.085L17.46 15.935C17.165 15.355 16.335 15.355 16.04 15.935L15.965 16.085C15.66 16.68 15.18 17.16 14.585 17.465L14.435 17.54C13.855 17.835 13.855 18.665 14.435 18.96L14.585 19.035C15.18 19.34 15.66 19.82 15.965 20.415L16.04 20.565C16.335 21.145 17.165 21.145 17.46 20.565L17.535 20.415C17.84 19.82 18.32 19.34 18.915 19.035L19.065 18.96C19.645 18.665 19.645 17.835 19.065 17.54Z" fill="white"/>
    <path d="M19.955 8.74L19.395 8.035L19.715 7.16C20.02 6.33 19.82 5.425 19.195 4.8C18.57 4.175 17.665 3.975 16.835 4.28L15.96 4.6L15.255 4.04C14.555 3.485 13.625 3.39 12.83 3.8C12.035 4.21 11.57 5.015 11.61 5.91L11.65 6.77L10.915 7.255C10.175 7.745 9.80003 8.595 9.93503 9.47C9.98003 9.77 10.085 10.045 10.235 10.29L3.89003 16.85C3.02503 17.745 3.03503 19.19 3.91503 20.07C4.36003 20.515 4.95003 20.74 5.54003 20.74C6.13003 20.74 6.69503 20.525 7.13503 20.1L13.695 13.755C13.94 13.905 14.215 14.01 14.515 14.055C14.635 14.075 14.75 14.08 14.865 14.08C15.61 14.08 16.305 13.71 16.73 13.07L17.215 12.335L18.075 12.375C18.97 12.425 19.775 11.95 20.185 11.155C20.595 10.36 20.5 9.43 19.945 8.73L19.955 8.74ZM10.425 12.26L11.405 11.245C11.45 11.26 11.495 11.28 11.54 11.295L12.445 11.555L12.705 12.46C12.72 12.505 12.74 12.55 12.755 12.595L11.21 14.09L10.425 12.265V12.26ZM10.055 15.2L8.68503 16.525L7.95503 14.815L9.30003 13.425L10.06 15.2H10.055ZM6.10003 19.025C5.79003 19.325 5.28503 19.32 4.98003 19.015C4.67503 18.71 4.67003 18.21 4.97003 17.895L6.81503 15.985L7.52503 17.64L6.09503 19.02L6.10003 19.025ZM18.86 10.48C18.81 10.58 18.6 10.905 18.16 10.885L17.26 10.84C16.76 10.815 16.275 11.06 15.995 11.48L15.485 12.25C15.24 12.62 14.86 12.595 14.75 12.575C14.64 12.56 14.27 12.47 14.145 12.045L13.875 11.105C13.74 10.625 13.37 10.26 12.895 10.125L11.955 9.855C11.53 9.735 11.44 9.365 11.425 9.25C11.41 9.135 11.38 8.76 11.75 8.515L12.52 8.005C12.94 7.73 13.185 7.245 13.16 6.74L13.115 5.84C13.095 5.395 13.42 5.19 13.52 5.14C13.575 5.11 13.705 5.055 13.87 5.055C14.005 5.055 14.165 5.095 14.325 5.22L15.06 5.805C15.445 6.11 15.975 6.2 16.44 6.03L17.35 5.695C17.765 5.545 18.055 5.79 18.135 5.87C18.215 5.95 18.46 6.24 18.31 6.655L17.975 7.565C17.805 8.03 17.89 8.56 18.2 8.945L18.785 9.68C19.065 10.03 18.915 10.385 18.865 10.485L18.86 10.48Z" fill="white"/>
</svg>