<svg viewBox="0 0 33 33" fill="none" xmlns="http://www.w3.org/2000/svg">
    <g clip-path="url(#clip0_1207_24200)">
        <path d="M2.04124 2.04124H7.21237V0H0V7.21237H2.04124V2.04124Z" fill="#54545B"/>
        <path d="M25.7876 0V2.04124H30.9587V7.21237H33V0H25.7876Z" fill="#54545B"/>
        <path d="M30.9587 30.9592H25.7876V33.0005H33V25.7881H30.9587V30.9592Z" fill="#54545B"/>
        <path d="M2.04124 25.7881H0V33.0005H7.21237V30.9592H2.04124V25.7881Z" fill="#54545B"/>
        <path d="M18.6709 11.9073C20.453 11.9073 21.9029 10.4574 21.9029 8.67532C21.9029 6.89325 20.4531 5.44336 18.6709 5.44336C16.8888 5.44336 15.439 6.89325 15.439 8.67532C15.439 10.4574 16.8889 11.9073 18.6709 11.9073Z" fill="#54545B"/>
        <path d="M5.44336 27.5568H27.5568V20.9691L23.5667 16.759L18.7278 19.5737L11.9915 14.7598L5.44336 21.6689V27.5568Z" fill="#54545B"/>
    </g>
    <defs>
        <clipPath id="clip0_1207_24200">
            <rect width="33" height="33" fill="white"/>
        </clipPath>
    </defs>
</svg>
