 <svg viewBox="0 0 20 20" fill="none" xmlns="http://www.w3.org/2000/svg">
    <path d="M9.185 13.625L9.065 13.565C8.58 13.315 8.185 12.92 7.935 12.435L7.875 12.315C7.635 11.84 6.955 11.84 6.71 12.315L6.65 12.435C6.4 12.92 6.005 13.315 5.52 13.565L5.4 13.625C4.925 13.865 4.925 14.545 5.4 14.79L5.52 14.85C6.005 15.1 6.4 15.495 6.65 15.98L6.71 16.1C6.95 16.575 7.63 16.575 7.875 16.1L7.935 15.98C8.185 15.495 8.58 15.1 9.065 14.85L9.185 14.79C9.66 14.55 9.66 13.87 9.185 13.625Z" fill="white"/>
    <path d="M14.33 8.57L14.17 8.49C13.67 8.235 13.27 7.835 13.01 7.33L12.93 7.17C12.655 6.63 12.105 6.295 11.5 6.295C10.895 6.295 10.345 6.63 10.07 7.17L9.99 7.33C9.735 7.83 9.335 8.23 8.83 8.49L8.67 8.57C8.13 8.845 7.795 9.395 7.795 10C7.795 10.605 8.13 11.155 8.67 11.43L8.83 11.51C9.33 11.765 9.73 12.165 9.99 12.67L10.07 12.83C10.345 13.37 10.895 13.705 11.5 13.705C12.105 13.705 12.655 13.37 12.93 12.83L13.01 12.67C13.265 12.17 13.665 11.77 14.17 11.51L14.33 11.43C14.87 11.155 15.205 10.605 15.205 10C15.205 9.395 14.87 8.845 14.33 8.57ZM13.65 10.1L13.49 10.18C12.705 10.58 12.08 11.205 11.68 11.99L11.6 12.15C11.6 12.15 11.57 12.21 11.505 12.21C11.44 12.21 11.415 12.165 11.41 12.15L11.33 11.99C10.93 11.205 10.305 10.58 9.52 10.18L9.36 10.1C9.36 10.1 9.3 10.07 9.3 10.005C9.3 9.94 9.345 9.915 9.36 9.91L9.52 9.83C10.305 9.43 10.93 8.805 11.33 8.02L11.41 7.86C11.41 7.86 11.44 7.8 11.505 7.8C11.57 7.8 11.595 7.845 11.6 7.86L11.68 8.02C12.08 8.805 12.705 9.43 13.49 9.83L13.65 9.91C13.65 9.91 13.71 9.94 13.71 10.005C13.71 10.07 13.665 10.095 13.65 10.1Z" fill="white"/>
    <path d="M14.315 3.25H12.12C11.68 1.53 10.115 0.25 8.26 0.25H4.74C2.54 0.25 0.75 2.04 0.75 4.24V6.42C0.43 7.11 0.25 7.875 0.25 8.685V14.315C0.25 17.31 2.69 19.75 5.685 19.75H14.315C17.31 19.75 19.75 17.31 19.75 14.315V8.685C19.75 5.69 17.31 3.25 14.315 3.25ZM4.74 1.75H8.26C9.28 1.75 10.16 2.37 10.54 3.25H5.68C4.38 3.25 3.185 3.71 2.245 4.475V4.235C2.245 2.86 3.36 1.745 4.735 1.745L4.74 1.75ZM18.25 14.315C18.25 16.485 16.485 18.25 14.315 18.25H5.685C3.515 18.25 1.75 16.485 1.75 14.315V8.685C1.75 6.515 3.515 4.75 5.685 4.75H14.315C16.485 4.75 18.25 6.515 18.25 8.685V14.315Z" fill="white"/>
</svg>