<svg viewBox="0 0 20 20" fill="none" xmlns="http://www.w3.org/2000/svg">
    <path d="M9.74988 5.25C9.74988 5.67 9.97988 6.05 10.3549 6.24L11.8599 7.005C12.3499 7.255 12.7449 7.65 12.9949 8.14L13.7599 9.645C13.9499 10.02 14.3299 10.25 14.7499 10.25C15.1699 10.25 15.5499 10.02 15.7399 9.645L16.5049 8.14C16.7549 7.65 17.1499 7.255 17.6399 7.005L19.1449 6.24C19.5199 6.05 19.7499 5.67 19.7499 5.25C19.7499 4.83 19.5199 4.45 19.1449 4.26L17.6399 3.495C17.1499 3.245 16.7549 2.85 16.5049 2.36L15.7399 0.855C15.5499 0.48 15.1699 0.25 14.7499 0.25C14.3299 0.25 13.9499 0.48 13.7599 0.855L12.9949 2.36C12.7449 2.85 12.3499 3.245 11.8599 3.495L10.3549 4.26C9.97988 4.45 9.74988 4.83 9.74988 5.25ZM12.5399 4.83C13.3149 4.435 13.9349 3.815 14.3299 3.04L14.7499 2.215L15.1699 3.04C15.5649 3.815 16.1849 4.435 16.9599 4.83L17.7849 5.25L16.9599 5.67C16.1849 6.065 15.5649 6.685 15.1699 7.46L14.7499 8.285L14.3299 7.46C13.9349 6.685 13.3149 6.065 12.5399 5.67L11.7149 5.25L12.5399 4.83Z" fill="white"/>
    <path d="M5.99988 7.5C6.82831 7.5 7.49988 6.82843 7.49988 6C7.49988 5.17157 6.82831 4.5 5.99988 4.5C5.17146 4.5 4.49988 5.17157 4.49988 6C4.49988 6.82843 5.17146 7.5 5.99988 7.5Z" fill="white"/>
    <path d="M18.9999 8.25C18.5849 8.25 18.2499 8.585 18.2499 9V14C18.2499 14.06 18.2449 14.12 18.2399 14.18L16.0449 12.295C15.0049 11.4 13.4949 11.4 12.4549 12.295L11.2949 13.295L7.81988 10.31C6.77988 9.415 5.26988 9.415 4.22988 10.31L1.75488 12.44V6.005C1.75488 3.66 3.65988 1.755 6.00488 1.755H11.0049C11.4199 1.755 11.7549 1.42 11.7549 1.005C11.7549 0.59 11.4199 0.255 11.0049 0.255H6.00488C2.83488 0.255 0.254883 2.835 0.254883 6.005V14.005C0.254883 17.175 2.83488 19.755 6.00488 19.755H14.0049C17.1749 19.755 19.7549 17.175 19.7549 14.005V9.005C19.7549 8.59 19.4199 8.255 19.0049 8.255L18.9999 8.25ZM1.76988 14.395L5.20488 11.445C5.67988 11.035 6.36988 11.04 6.83988 11.445L10.1399 14.28L5.54988 18.225C3.54488 18.015 1.95488 16.405 1.76988 14.395ZM13.9999 18.25H7.82488L13.4349 13.43C13.9099 13.02 14.5999 13.02 15.0699 13.43L17.8399 15.81C17.1599 17.25 15.6949 18.25 13.9999 18.25Z" fill="white"/>
</svg>