<svg viewBox="0 0 16 16" fill="none" xmlns="http://www.w3.org/2000/svg">
    <path d="M9.33341 10L6.66675 12.6667L9.33341 15.3333" stroke="currentColor"/>
    <path d="M12.0415 5.66683C12.4511 6.37625 12.6667 7.18099 12.6667 8.00016C12.6667 8.81933 12.4511 9.62407 12.0415 10.3335C11.6319 11.0429 11.0428 11.632 10.3334 12.0416C9.62399 12.4512 8.81925 12.6668 8.00008 12.6668" stroke="currentColor" stroke-linecap="round"/>
    <path d="M6.66659 6L9.33325 3.33333L6.66659 0.666667" stroke="currentColor"/>
    <path d="M3.95847 10.3332C3.54888 9.62375 3.33325 8.81901 3.33325 7.99984C3.33325 7.18067 3.54888 6.37593 3.95847 5.6665C4.36805 4.95708 4.95716 4.36797 5.66659 3.95839C6.37601 3.5488 7.18075 3.33317 7.99992 3.33317" stroke="currentColor" stroke-linecap="round"/>
</svg>
