<svg viewBox="0 0 24 24" fill="none" xmlns="http://www.w3.org/2000/svg">
    <path d="M2 6.5L1.29289 7.20711L0.585785 6.5L1.29289 5.79289L2 6.5ZM7 18.5C6.44772 18.5 6 18.0523 6 17.5C6 16.9477 6.44772 16.5 7 16.5L7 18.5ZM6.29289 12.2071L1.29289 7.20711L2.70711 5.79289L7.70711 10.7929L6.29289 12.2071ZM1.29289 5.79289L6.29289 0.792892L7.70711 2.20711L2.70711 7.20711L1.29289 5.79289ZM2 5.5L12.5 5.5L12.5 7.5L2 7.5L2 5.5ZM12.5 18.5L7 18.5L7 16.5L12.5 16.5L12.5 18.5ZM19 12C19 15.5898 16.0898 18.5 12.5 18.5L12.5 16.5C14.9853 16.5 17 14.4853 17 12L19 12ZM12.5 5.5C16.0899 5.5 19 8.41015 19 12L17 12C17 9.51472 14.9853 7.5 12.5 7.5L12.5 5.5Z" fill="#808088"/>
</svg>