<svg viewBox="0 0 18 19" fill="none" xmlns="http://www.w3.org/2000/svg">
    <path d="M6.35506 2.83027L6.47506 2.89027C6.96006 3.14027 7.35506 3.53527 7.60506 4.02027L7.66506 4.14027C7.90506 4.61527 8.58506 4.61527 8.83006 4.14027L8.89006 4.02027C9.14006 3.53527 9.53506 3.14027 10.0201 2.89027L10.1401 2.83027C10.6151 2.59027 10.6151 1.91027 10.1401 1.66527L10.0201 1.60527C9.53506 1.35527 9.14006 0.960273 8.89006 0.475273L8.83006 0.355273C8.59006 -0.119727 7.91006 -0.119727 7.66506 0.355273L7.60506 0.475273C7.35506 0.960273 6.96006 1.35527 6.47506 1.60527L6.35506 1.66527C5.88006 1.90527 5.88006 2.58527 6.35506 2.83027Z" fill="white"/>
    <path d="M7.30006 7.51527C7.79006 7.26527 7.79006 6.57027 7.30006 6.32027L6.57006 5.94527C5.92006 5.61027 5.39006 5.08027 5.05506 4.43027L4.68006 3.70027C4.43006 3.21027 3.73506 3.21027 3.48506 3.70027L3.11006 4.43027C2.77506 5.08027 2.24506 5.61027 1.59506 5.94527L0.865059 6.32027C0.375059 6.57027 0.375059 7.26527 0.865059 7.51527L1.59506 7.89027C2.24506 8.22527 2.77506 8.75527 3.11006 9.40527L3.48506 10.1353C3.73506 10.6253 4.43006 10.6253 4.68006 10.1353L5.05506 9.40527C5.39006 8.75527 5.92006 8.22527 6.57006 7.89027L7.30006 7.51527Z" fill="white"/>
    <path d="M16.6801 10.5053L15.9401 10.1253C15.0451 9.67027 14.3301 8.95527 13.8751 8.06027L13.4951 7.32027C13.1601 6.66027 12.4901 6.25027 11.7501 6.25027C11.0101 6.25027 10.3401 6.66027 10.0051 7.32027L9.62506 8.06027C9.17006 8.95527 8.45506 9.67027 7.56006 10.1253L6.82006 10.5053C6.16006 10.8403 5.75006 11.5103 5.75006 12.2503C5.75006 12.9903 6.16006 13.6603 6.82006 13.9953L7.56006 14.3753C8.45506 14.8303 9.17006 15.5453 9.62506 16.4403L10.0051 17.1803C10.3401 17.8403 11.0101 18.2503 11.7501 18.2503C12.4901 18.2503 13.1601 17.8403 13.4951 17.1803L13.8751 16.4403C14.3301 15.5453 15.0451 14.8303 15.9401 14.3753L16.6801 13.9953C17.3401 13.6603 17.7501 12.9903 17.7501 12.2503C17.7501 11.5103 17.3401 10.8403 16.6801 10.5053ZM16.0001 12.6603L15.2601 13.0403C14.0801 13.6403 13.1401 14.5803 12.5401 15.7603L12.1601 16.5003C12.0451 16.7253 11.8351 16.7503 11.7501 16.7503C11.6651 16.7503 11.4551 16.7253 11.3401 16.5003L10.9601 15.7603C10.3601 14.5803 9.42006 13.6403 8.24006 13.0403L7.50006 12.6603C7.27506 12.5453 7.25006 12.3353 7.25006 12.2503C7.25006 12.1653 7.27506 11.9553 7.50006 11.8403L8.24006 11.4603C9.42006 10.8603 10.3601 9.92027 10.9601 8.74027L11.3401 8.00027C11.4551 7.77527 11.6651 7.75027 11.7501 7.75027C11.8351 7.75027 12.0451 7.77527 12.1601 8.00027L12.5401 8.74027C13.1401 9.92027 14.0801 10.8603 15.2601 11.4603L16.0001 11.8403C16.2251 11.9553 16.2501 12.1653 16.2501 12.2503C16.2501 12.3353 16.2251 12.5453 16.0001 12.6603Z" fill="white"/>
</svg>