<svg width="24" height="24" viewBox="0 0 24 24" fill="none" xmlns="http://www.w3.org/2000/svg">
<path d="M18 2C18 2.55228 17.5523 3 17 3C16.4477 3 16 2.55228 16 2C16 1.44772 16.4477 1 17 1C17.5523 1 18 1.44772 18 2Z" fill="white"/>
<path d="M3.09211 1.3208C3.19583 0.893066 3.80417 0.893066 3.90789 1.3208L4.19328 2.49774C4.23031 2.65046 4.34955 2.76969 4.50226 2.80672L5.6792 3.09211C6.10693 3.19583 6.10693 3.80417 5.6792 3.90789L4.50226 4.19328C4.48317 4.19791 4.4646 4.20382 4.44666 4.21092C4.32102 4.26064 4.22568 4.36863 4.19328 4.50226L3.90789 5.6792C3.90141 5.70593 3.89295 5.73099 3.88277 5.75439C3.7301 6.10526 3.18935 6.0802 3.09211 5.6792L2.80672 4.50226C2.80441 4.49271 2.80177 4.4833 2.79883 4.47403C2.75466 4.33496 2.64091 4.22799 2.49774 4.19328L1.3208 3.90789C1.29407 3.90141 1.26901 3.89295 1.24561 3.88277C0.894737 3.7301 0.9198 3.18935 1.3208 3.09211L2.49774 2.80672C2.65046 2.76969 2.76969 2.65046 2.80672 2.49774L3.09211 1.3208Z" fill="white"/>
<path d="M23 4C23 4.55228 22.5523 5 22 5C21.4477 5 21 4.55228 21 4C21 3.44772 21.4477 3 22 3C22.5523 3 23 3.44772 23 4Z" fill="white"/>
<path d="M6 18.5C6 19.0523 5.55228 19.5 5 19.5C4.44772 19.5 4 19.0523 4 18.5C4 17.9477 4.44772 17.5 5 17.5C5.55228 17.5 6 17.9477 6 18.5Z" fill="white"/>
<path fill-rule="evenodd" clip-rule="evenodd" d="M17 14.5C17 17.2614 14.7614 19.5 12 19.5C9.23858 19.5 7 17.2614 7 14.5C7 11.7386 9.23858 9.5 12 9.5C14.7614 9.5 17 11.7386 17 14.5ZM15.3 14.5C15.3 16.3225 13.8225 17.8 12 17.8C10.1775 17.8 8.7 16.3225 8.7 14.5C8.7 12.6775 10.1775 11.2 12 11.2C13.8225 11.2 15.3 12.6775 15.3 14.5Z" fill="white"/>
<path fill-rule="evenodd" clip-rule="evenodd" d="M8.63894 5.64872C9.1287 4.63827 10.1299 4 11.225 4H12.775C13.8701 4 14.8713 4.63827 15.3611 5.64872L15.7612 6.47426C15.9588 6.88199 16.3628 7.13953 16.8047 7.13953H19.6087C21.2055 7.13953 22.5 8.47487 22.5 10.1221V19.0174C22.5 20.6647 21.2055 22 19.6087 22H4.3913C2.79448 22 1.5 20.6647 1.5 19.0174V10.1221C1.5 8.47487 2.79448 7.13953 4.3913 7.13953H7.19529C7.63719 7.13953 8.04117 6.88198 8.23879 6.47426L8.63894 5.64872ZM11.225 5.77907C10.7831 5.77907 10.3791 6.03662 10.1815 6.44434L9.78135 7.26989C9.29159 8.28033 8.29044 8.9186 7.19529 8.9186H4.3913C3.74697 8.9186 3.22464 9.45742 3.22464 10.1221V19.0174C3.22464 19.6821 3.74697 20.2209 4.3913 20.2209H19.6087C20.253 20.2209 20.7754 19.6821 20.7754 19.0174V10.1221C20.7754 9.45742 20.253 8.9186 19.6087 8.9186H16.8047C15.7096 8.9186 14.7084 8.28033 14.2186 7.26989L13.8185 6.44434C13.6209 6.03662 13.2169 5.77907 12.775 5.77907H11.225Z" fill="white"/>
</svg>
