<svg viewBox="0 0 24 24" fill="none" xmlns="http://www.w3.org/2000/svg">
    <path d="M20.25 11.75H20.11C19.535 9.18002 17.24 7.25002 14.5 7.25002H12.75V6.61002C13.62 6.30002 14.25 5.47502 14.25 4.50002C14.25 3.26002 13.24 2.25002 12 2.25002C10.76 2.25002 9.75 3.26002 9.75 4.50002C9.75 5.47502 10.38 6.30002 11.25 6.61002V7.25002H9.5C6.76 7.25002 4.465 9.18002 3.89 11.75H3.75C2.925 11.75 2.25 12.425 2.25 13.25V14.75C2.25 15.575 2.925 16.25 3.75 16.25H4.025C4.615 18.09 6.105 19.52 7.975 20.04C7.835 20.335 7.75 20.655 7.75 21C7.75 21.415 8.085 21.75 8.5 21.75H15.5C15.915 21.75 16.25 21.415 16.25 21C16.25 20.655 16.165 20.33 16.025 20.04C17.895 19.525 19.385 18.09 19.975 16.25H20.25C21.075 16.25 21.75 15.575 21.75 14.75V13.25C21.75 12.425 21.075 11.75 20.25 11.75ZM12 3.75002C12.415 3.75002 12.75 4.08502 12.75 4.50002C12.75 4.91502 12.415 5.25002 12 5.25002C11.585 5.25002 11.25 4.91502 11.25 4.50002C11.25 4.08502 11.585 3.75002 12 3.75002ZM14.5 18.75H9.5C7.155 18.75 5.25 16.845 5.25 14.5V13C5.25 10.655 7.155 8.75002 9.5 8.75002H14.5C16.845 8.75002 18.75 10.655 18.75 13V14.5C18.75 16.845 16.845 18.75 14.5 18.75Z" fill="white"/>
    <path d="M9.25 10.75C8.425 10.75 7.75 11.425 7.75 12.25V13.75C7.75 14.575 8.425 15.25 9.25 15.25C10.075 15.25 10.75 14.575 10.75 13.75V12.25C10.75 11.425 10.075 10.75 9.25 10.75Z" fill="white"/>
    <path d="M14.75 10.75C13.925 10.75 13.25 11.425 13.25 12.25V13.75C13.25 14.575 13.925 15.25 14.75 15.25C15.575 15.25 16.25 14.575 16.25 13.75V12.25C16.25 11.425 15.575 10.75 14.75 10.75Z" fill="white"/>
    <path d="M6.765 3.71002L8.265 4.21002C8.345 4.23502 8.425 4.25002 8.5 4.25002C8.815 4.25002 9.105 4.05002 9.21 3.73502C9.34 3.34002 9.13 2.91502 8.735 2.78502L7.235 2.28502C6.845 2.15502 6.42 2.36502 6.285 2.76002C6.15 3.15502 6.365 3.58002 6.76 3.71002H6.765Z" fill="white"/>
    <path d="M7 6.75002C7.08 6.75002 7.16 6.74002 7.235 6.71002L8.735 6.21002C9.13 6.08002 9.34 5.65502 9.21 5.26002C9.08 4.86502 8.655 4.65502 8.26 4.78502L6.76 5.28502C6.365 5.41502 6.155 5.84002 6.285 6.23502C6.39 6.55002 6.68 6.75002 6.995 6.75002H7Z" fill="white"/>
    <path d="M15.5 4.25002C15.58 4.25002 15.66 4.24002 15.735 4.21002L17.235 3.71002C17.63 3.58002 17.84 3.15502 17.71 2.76002C17.58 2.36502 17.155 2.15502 16.76 2.28502L15.26 2.78502C14.865 2.91502 14.655 3.34002 14.785 3.73502C14.89 4.05002 15.18 4.25002 15.495 4.25002H15.5Z" fill="white"/>
    <path d="M15.265 6.21002L16.765 6.71002C16.845 6.73502 16.925 6.75002 17 6.75002C17.315 6.75002 17.605 6.55002 17.71 6.23502C17.84 5.84002 17.63 5.41502 17.235 5.28502L15.735 4.78502C15.345 4.65502 14.915 4.86502 14.785 5.26002C14.655 5.65502 14.865 6.08002 15.26 6.21002H15.265Z" fill="white"/>
</svg>
