<svg viewBox="0 0 20 19" fill="none" xmlns="http://www.w3.org/2000/svg">
    <path d="M19.265 16.5298L19.185 16.4898C18.86 16.3248 18.6 16.0598 18.43 15.7348L18.39 15.6548C18.23 15.3398 17.775 15.3398 17.615 15.6548L17.575 15.7348C17.41 16.0598 17.145 16.3198 16.82 16.4898L16.74 16.5298C16.425 16.6898 16.425 17.1448 16.74 17.3048L16.82 17.3448C17.145 17.5098 17.405 17.7748 17.575 18.0998L17.615 18.1798C17.775 18.4948 18.23 18.4948 18.39 18.1798L18.43 18.0998C18.595 17.7748 18.86 17.5148 19.185 17.3448L19.265 17.3048C19.58 17.1448 19.58 16.6898 19.265 16.5298Z" fill="white"/>
    <path d="M17.63 14.4748L17.79 14.3948C18.33 14.1198 18.665 13.5698 18.665 12.9648C18.665 12.3598 18.33 11.8098 17.79 11.5298L17.63 11.4498C17.13 11.1948 16.73 10.7948 16.475 10.2948L16.395 10.1348C16.12 9.59477 15.57 9.25977 14.965 9.25977C14.36 9.25977 13.81 9.59477 13.53 10.1348L13.45 10.2948C13.195 10.7948 12.795 11.1948 12.295 11.4498L12.135 11.5298C11.595 11.8048 11.26 12.3548 11.26 12.9648C11.26 13.5748 11.595 14.1198 12.135 14.3998L12.295 14.4798C12.795 14.7348 13.195 15.1348 13.45 15.6348L13.53 15.7948C13.805 16.3348 14.355 16.6698 14.965 16.6698C15.575 16.6698 16.12 16.3348 16.4 15.7948L16.48 15.6348C16.735 15.1348 17.135 14.7348 17.635 14.4798L17.63 14.4748ZM15.135 14.9498L15.055 15.1098C15.055 15.1098 15.025 15.1698 14.96 15.1698C14.895 15.1698 14.87 15.1248 14.865 15.1098L14.785 14.9498C14.385 14.1648 13.76 13.5398 12.975 13.1398L12.815 13.0598C12.815 13.0598 12.755 13.0298 12.755 12.9648C12.755 12.8998 12.8 12.8748 12.815 12.8698L12.975 12.7898C13.76 12.3898 14.385 11.7648 14.785 10.9798L14.865 10.8198C14.865 10.8198 14.895 10.7598 14.96 10.7598C15.025 10.7598 15.05 10.7998 15.055 10.8198L15.135 10.9798C15.535 11.7648 16.16 12.3898 16.945 12.7898L17.105 12.8698C17.105 12.8698 17.165 12.8998 17.165 12.9648C17.165 13.0298 17.12 13.0548 17.105 13.0598L16.945 13.1398C16.16 13.5398 15.535 14.1648 15.135 14.9498Z" fill="white"/>
    <path d="M11.385 15.1848C10.805 15.5998 10.32 15.9148 10.005 16.1198C8.34499 15.0598 1.86499 10.6648 1.86499 6.61477C1.86499 4.04477 3.45499 2.25477 5.72499 2.25477C7.13999 2.25477 8.36999 3.03977 9.37499 4.58977C9.64999 5.01477 10.355 5.01477 10.635 4.58977C11.64 3.03977 12.87 2.25477 14.285 2.25477C16.56 2.25477 18.145 4.04977 18.145 6.61477C18.145 7.50977 17.81 8.50477 17.155 9.56476C16.935 9.91477 17.045 10.3798 17.395 10.5998C17.75 10.8198 18.21 10.7098 18.43 10.3598C19.235 9.05976 19.645 7.79977 19.645 6.61977C19.645 3.22477 17.39 0.759766 14.285 0.759766C13.11 0.759766 11.48 1.15977 10.005 2.91977C8.53499 1.15477 6.89999 0.759766 5.72499 0.759766C2.61999 0.759766 0.36499 3.22477 0.36499 6.61977C0.36499 12.0948 9.24499 17.4298 9.61999 17.6548C9.73999 17.7248 9.86999 17.7598 10.005 17.7598C10.14 17.7598 10.27 17.7248 10.39 17.6548C10.42 17.6348 11.18 17.1848 12.26 16.4148C12.595 16.1748 12.675 15.7048 12.435 15.3698C12.195 15.0348 11.725 14.9548 11.39 15.1948L11.385 15.1848Z" fill="white"/>
</svg>
