<svg width="27" height="27" viewBox="0 0 27 27" fill="none" xmlns="http://www.w3.org/2000/svg">
<path d="M7.84954 8.64714C9.03471 8.63133 10.2199 8.62638 11.4052 8.6323C11.7144 8.99336 12.0208 9.41577 12.2453 9.82959L12.2091 9.90307C11.9877 9.60372 11.5844 8.76496 11.1762 8.71446C11.1639 8.71301 11.1516 8.71682 11.1394 8.71799C11.0932 8.7788 11.0809 8.77256 11.0854 8.85147C11.1009 9.12095 11.0697 9.25289 10.8745 9.45396C10.386 9.95719 9.75673 10.0115 9.15308 10.3013C8.20315 10.7576 7.27702 11.8234 7.28708 12.8875C7.28727 12.9125 7.28831 12.9376 7.28859 12.9628C7.28972 13.0572 7.27739 13.1463 7.26601 13.2398C7.25707 13.3141 7.2599 13.2846 7.26423 13.3746C6.65897 12.7259 6.64345 11.9199 6.62981 11.0919C6.62811 10.9863 6.54373 10.9183 6.47864 10.835C5.97733 11.5005 5.59107 12.2787 5.04264 12.9055L4.98779 12.8485C5.29249 12.312 5.6922 11.7932 6.04064 11.2805C6.63874 10.4008 7.22744 9.51124 7.84954 8.64714Z" fill="url(#paint0_linear_2926_47946)"/>
<path d="M21.4004 17.8761C21.4873 17.8655 21.5201 17.8568 21.6018 17.8175C22.0527 17.0621 23.3148 14.101 23.32 13.2891C23.2651 13.1924 23.2226 13.124 23.224 13.0096C23.2242 12.9864 23.2284 12.9635 23.2305 12.9404L25.7688 16.5851C26.177 17.1694 26.6451 17.7497 26.9991 18.3639C25.2643 18.4167 23.5064 18.417 21.7708 18.3895C21.6489 18.2243 21.4985 18.0542 21.4004 17.8761Z" fill="url(#paint1_linear_2926_47946)"/>
<path d="M18.2577 13.4312C17.9101 13.0274 15.2036 9.07403 15.1659 8.89215C15.1443 8.78727 15.1729 8.76338 15.2276 8.67732C15.5755 8.53145 19.5818 8.60791 20.2001 8.63633C20.3741 8.82419 20.5296 9.01766 20.6526 9.24054C20.6254 9.39275 20.6855 9.38342 20.6976 9.50432C20.7025 9.553 20.6132 9.72612 20.5919 9.77724C20.2943 10.4898 19.9173 10.8885 19.5642 11.5282C19.2243 12.1436 18.9968 12.7939 18.5672 13.3663L18.3433 13.3536L18.2577 13.4312Z" fill="url(#paint2_linear_2926_47946)"/>
<path d="M4.98821 12.8495L5.04305 12.9065C5.59149 12.2797 5.97774 11.5015 6.47905 10.8359C6.54415 10.9193 6.62853 10.9873 6.63022 11.0929C6.64386 11.9208 6.65938 12.7269 7.26464 13.3756C7.45748 13.4742 7.77037 13.7099 7.97384 13.719C6.91996 15.2669 5.87775 16.833 4.77843 18.3511C4.06001 18.3857 1.97464 18.4562 1.358 18.3152C1.24662 18.2896 1.285 18.3144 1.22705 18.2257C1.24031 18.1523 1.25452 18.0958 1.29657 18.032C1.4612 17.7822 1.66768 17.5521 1.84218 17.3072L3.47658 14.9947C3.96885 14.299 4.43187 13.4934 4.98821 12.8495Z" fill="url(#paint3_linear_2926_47946)"/>
<path d="M20.6537 9.24023C21.5302 10.4594 22.3787 11.7042 23.2285 12.941C23.2263 12.9641 23.2221 12.9869 23.2219 13.0101C23.2206 13.1246 23.263 13.193 23.3179 13.2896C23.3128 14.1015 22.0506 17.0627 21.5997 17.818C21.518 17.8574 21.4852 17.8661 21.3983 17.8767C20.3708 16.3828 19.2567 14.9453 18.2588 13.4309L18.3444 13.3533L18.5683 13.366C18.9979 12.7936 19.2254 12.1433 19.5653 11.5279C19.9184 10.8882 20.2954 10.4895 20.593 9.77694C20.6143 9.72581 20.7036 9.5527 20.6987 9.50402C20.6866 9.38312 20.6265 9.39244 20.6537 9.24023Z" fill="url(#paint4_linear_2926_47946)"/>
<path d="M7.26483 13.3724C7.2605 13.2824 7.25768 13.3118 7.26662 13.2375C7.278 13.1441 7.29032 13.055 7.28919 12.9605C7.28891 12.9354 7.28788 12.9103 7.28769 12.8853C7.27762 11.8212 8.20375 10.7554 9.15368 10.2991C9.75734 10.0093 10.3866 9.95496 10.8751 9.45174C11.0703 9.25067 11.1015 9.11873 11.086 8.84924C11.0815 8.77033 11.0938 8.77658 11.14 8.71577C11.1522 8.71459 11.1645 8.71079 11.1768 8.71224C11.585 8.76273 11.9883 9.6015 12.2097 9.90085L12.2459 9.82737C13.1762 10.9535 13.9878 12.304 14.8299 13.5028C15.8534 14.9598 16.9835 16.3803 17.8983 17.9035C17.9755 18.0321 18.0276 18.1315 18.0198 18.2835C17.9174 18.359 17.8582 18.3558 17.7285 18.3619C16.6579 18.4121 15.5607 18.3665 14.488 18.3671L8.37957 18.3624C8.20705 18.3724 8.0301 18.3592 7.8572 18.3544C8.0111 17.9482 9.14465 16.2275 9.48284 16.0155C9.84614 15.9488 10.2776 15.9833 10.6489 15.9815L12.9066 15.9731C12.5204 15.5092 12.1898 14.9982 11.8466 14.5043C11.1039 13.4355 10.3901 12.3422 9.62818 11.2867C9.07009 12.0922 8.51871 12.9019 7.97403 13.7158C7.77056 13.7066 7.45768 13.471 7.26483 13.3724Z" fill="url(#paint5_linear_2926_47946)"/>
<path d="M7.85645 18.3574C8.01035 17.9512 9.1439 16.2305 9.48208 16.0186C9.70666 16.031 9.93106 16.0462 10.1553 16.0643V16.066L10.1814 16.0793C9.79412 16.1153 9.55772 16.0658 9.28924 16.3733C9.04719 16.6505 8.85642 16.9919 8.66037 17.3002C8.67025 17.4601 8.73779 17.8255 8.69226 17.964C8.65059 18.0909 8.54495 18.1254 8.56715 18.2722C8.85689 18.2932 9.14635 18.2918 9.43665 18.2927L9.50523 18.198L9.48529 18.3099L9.50843 18.3049C9.13948 18.3109 8.73893 18.2874 8.37882 18.3654C8.20629 18.3754 8.02935 18.3622 7.85645 18.3574Z" fill="#C2C368"/>
<defs>
<linearGradient id="paint0_linear_2926_47946" x1="8.61654" y1="8.62988" x2="8.61654" y2="13.3746" gradientUnits="userSpaceOnUse">
<stop stop-color="#F6B767"/>
<stop offset="1" stop-color="#D0BE66"/>
</linearGradient>
<linearGradient id="paint1_linear_2926_47946" x1="22.3696" y1="15.7371" x2="26.9683" y2="17.579" gradientUnits="userSpaceOnUse">
<stop stop-color="#9F6CD3"/>
<stop offset="1" stop-color="#4F80E9"/>
</linearGradient>
<linearGradient id="paint2_linear_2926_47946" x1="15.5174" y1="8.39927" x2="19.8094" y2="11.6765" gradientUnits="userSpaceOnUse">
<stop stop-color="#FF719D"/>
<stop offset="1" stop-color="#E25DAA"/>
</linearGradient>
<linearGradient id="paint3_linear_2926_47946" x1="4.60045" y1="10.8359" x2="4.60045" y2="18.3996" gradientUnits="userSpaceOnUse">
<stop stop-color="#D9BB65"/>
<stop offset="1" stop-color="#9FD06B"/>
</linearGradient>
<linearGradient id="paint4_linear_2926_47946" x1="18.646" y1="12.6299" x2="23.1017" y2="14.7102" gradientUnits="userSpaceOnUse">
<stop stop-color="#E65DA9"/>
<stop offset="1" stop-color="#9F68D3"/>
</linearGradient>
<linearGradient id="paint5_linear_2926_47946" x1="8.3405" y1="9.821" x2="7.50115" y2="13.3112" gradientUnits="userSpaceOnUse">
<stop stop-color="#F0B867"/>
<stop offset="1" stop-color="#C2C368"/>
</linearGradient>
</defs>
</svg>
