<svg width="26" height="26" viewBox="0 0 26 26" fill="none" xmlns="http://www.w3.org/2000/svg">
<path fill-rule="evenodd" clip-rule="evenodd" d="M13 22.75C18.3848 22.75 22.75 18.3848 22.75 13C22.75 10.9068 22.0904 8.9676 20.9676 7.37903L12.9907 16.2423C12.4416 16.8524 11.5177 16.9425 10.8611 16.45L7.10763 13.6349C6.7574 13.3723 6.68643 12.8754 6.9491 12.5252C7.21177 12.175 7.70862 12.104 8.05884 12.3667L11.8123 15.1817L19.9396 6.15136C18.1718 4.36015 15.7155 3.25 13 3.25C7.61522 3.25 3.25 7.61522 3.25 13C3.25 18.3848 7.61522 22.75 13 22.75Z" fill="white"/>
</svg>
