<svg width="14" height="14" viewBox="0 0 14 14" fill="none" xmlns="http://www.w3.org/2000/svg">
<path d="M5.40811 12.7806L5.72433 13.7293H5.72434L5.40811 12.7806ZM12.7071 3.54289L13.4142 4.25L12.7071 3.54289ZM9.54289 6.70711L8.83578 6.00001L9.54289 6.70711ZM2 2H12V0H2V2ZM2 2.83579V2H0V2.83579H2ZM5.16421 6L2 2.83579L0.585786 4.25L3.74999 7.41421L5.16421 6ZM3.74999 7.41421V12.3063H5.75V7.41421H3.74999ZM3.74999 12.3063C3.74999 13.3301 4.75304 14.0531 5.72433 13.7293L5.09188 11.8319C5.41565 11.724 5.75 11.965 5.75 12.3063H3.74999ZM5.72434 13.7293L9.22434 12.5626L8.59188 10.6653L5.09188 11.8319L5.72434 13.7293ZM9.22434 12.5626C9.83685 12.3585 10.25 11.7853 10.25 11.1396H8.25C8.25 10.9244 8.38771 10.7333 8.59188 10.6653L9.22434 12.5626ZM10.25 11.1396V7.41422H8.25V11.1396H10.25ZM12 2.83579L8.83578 6.00001L10.25 7.41422L13.4142 4.25L12 2.83579ZM12 2V2.83579H14V2H12ZM13.4142 4.25C13.7893 3.87493 14 3.36622 14 2.83579H12L13.4142 4.25ZM10.25 7.41422V7.41422L8.83578 6.00001C8.46071 6.37508 8.25 6.88379 8.25 7.41422H10.25ZM3.74999 7.41421H5.75C5.75 6.88378 5.53928 6.37507 5.16421 6L3.74999 7.41421ZM0 2.83579C0 3.36622 0.210713 3.87493 0.585786 4.25L2 2.83579L2 2.83579H0ZM12 2H14C14 0.895431 13.1046 0 12 0V2ZM2 0C0.895431 0 0 0.89543 0 2H2V2V0Z" fill="white"/>
</svg>
