<svg width="16" height="17" viewBox="0 0 16 17" fill="none" xmlns="http://www.w3.org/2000/svg">
<path d="M2.6665 13.834H2.1665V14.334H2.6665V13.834ZM6.35339 10.8542C6.54865 10.6589 6.54865 10.3424 6.35339 10.1471C6.15813 9.95184 5.84155 9.95184 5.64628 10.1471L6.35339 10.8542ZM2.1665 9.83398V13.834H3.1665V9.83398H2.1665ZM2.6665 14.334H6.6665V13.334H2.6665V14.334ZM3.02006 14.1875L6.35339 10.8542L5.64628 10.1471L2.31295 13.4804L3.02006 14.1875Z" fill="#808088"/>
<path d="M13.3335 3.16602H13.8335V2.66602H13.3335V3.16602ZM9.64661 6.1458C9.45135 6.34106 9.45135 6.65764 9.64661 6.8529C9.84187 7.04816 10.1585 7.04816 10.3537 6.8529L9.64661 6.1458ZM13.8335 7.16602V3.16602H12.8335V7.16602H13.8335ZM13.3335 2.66602H9.3335V3.66602H13.3335V2.66602ZM12.9799 2.81246L9.64661 6.1458L10.3537 6.8529L13.687 3.51957L12.9799 2.81246Z" fill="#808088"/>
</svg>
