<svg width="16" height="17" viewBox="0 0 16 17" fill="none" xmlns="http://www.w3.org/2000/svg">
<path d="M11.3335 2.5L11.3335 5.16667" stroke="#808088" stroke-width="1.2" stroke-linecap="round"/>
<path d="M4.6665 2.5L4.6665 5.16667" stroke="#808088" stroke-width="1.2" stroke-linecap="round"/>
<path d="M2 7.83333C2 6.58718 2 5.9641 2.26795 5.5C2.44349 5.19596 2.69596 4.94349 3 4.76795C3.4641 4.5 4.08718 4.5 5.33333 4.5H10.6667C11.9128 4.5 12.5359 4.5 13 4.76795C13.304 4.94349 13.5565 5.19596 13.7321 5.5C14 5.9641 14 6.58718 14 7.83333V7.83333H2V7.83333Z" stroke="#808088" stroke-width="1.2"/>
<rect x="2" y="4.5" width="12" height="10" rx="2" stroke="#808088" stroke-width="1.2"/>
<path d="M4 10.5H6.66667" stroke="#808088" stroke-width="1.2" stroke-linecap="round"/>
<path d="M9.3335 10.5H12.0002" stroke="#808088" stroke-width="1.2" stroke-linecap="round"/>
<path d="M4 12.5H6.66667" stroke="#808088" stroke-width="1.2" stroke-linecap="round"/>
<path d="M9.3335 12.5H12.0002" stroke="#808088" stroke-width="1.2" stroke-linecap="round"/>
</svg>
