<svg width="20" height="20" viewBox="0 0 20 20" fill="none" xmlns="http://www.w3.org/2000/svg">
<path d="M10 0C4.47715 0 0 4.47715 0 10C0 15.5228 4.47715 20 10 20C15.5228 20 20 15.5228 20 10C19.9936 4.47982 15.5202 0.00642897 10 0Z" fill="url(#paint0_linear_1207_24810)"/>
<path d="M15.7724 6.83362L10.0683 14.5745C9.93221 14.7549 9.72936 14.8732 9.50527 14.9027C9.28118 14.9321 9.05465 14.8703 8.87659 14.7311L4.80325 11.4745C4.44381 11.1868 4.3856 10.6622 4.67325 10.3028C4.9609 9.94334 5.48547 9.88514 5.84492 10.1728L9.24159 12.8903L14.4308 5.84778C14.6009 5.59244 14.8976 5.45127 15.2031 5.48032C15.5086 5.50936 15.7734 5.70393 15.8923 5.98676C16.0113 6.2696 15.9653 6.59494 15.7724 6.83362Z" fill="white"/>
<defs>
<linearGradient id="paint0_linear_1207_24810" x1="1.53074" y1="7.84974" x2="14.6505" y2="18.3063" gradientUnits="userSpaceOnUse">
<stop stop-color="#E65DA9"/>
<stop offset="1" stop-color="#9F68D3"/>
</linearGradient>
</defs>
</svg>
