<svg width="20" height="20" viewBox="0 0 20 20" fill="none" xmlns="http://www.w3.org/2000/svg">
<path fill-rule="evenodd" clip-rule="evenodd" d="M20 10C20 15.5228 15.5228 20 10 20C4.47715 20 0 15.5228 0 10C0 4.47715 4.47715 0 10 0C15.5228 0 20 4.47715 20 10ZM4.84856 15.1516C4.45803 14.761 4.45803 14.1279 4.84856 13.7373L8.58579 10.0001L4.84834 6.26266C4.45782 5.87214 4.45782 5.23897 4.84834 4.84845C5.23886 4.45792 5.87203 4.45792 6.26255 4.84845L10 8.5859L13.7374 4.84845C14.128 4.45792 14.7611 4.45792 15.1517 4.84845C15.5422 5.23897 15.5422 5.87214 15.1517 6.26266L11.4142 10.0001L15.1514 13.7373C15.542 14.1279 15.542 14.761 15.1514 15.1516C14.7609 15.5421 14.1278 15.5421 13.7372 15.1516L10 11.4143L6.26277 15.1516C5.87225 15.5421 5.23908 15.5421 4.84856 15.1516Z" fill="#EB5757"/>
</svg>
