<svg viewBox="0 0 39 40" fill="none" xmlns="http://www.w3.org/2000/svg">
<g clip-path="url(#clip0_1179_7538)">
<path d="M2.41237 2.47423H8.52371V0H0V8.74227H2.41237V2.47423Z" fill="#54545B"/>
<path d="M30.4761 0V2.47423H36.5874V8.74227H38.9998V0H30.4761Z" fill="#54545B"/>
<path d="M36.5874 37.5259H30.4761V40.0001H38.9998V31.2578H36.5874V37.5259Z" fill="#54545B"/>
<path d="M2.41237 31.2578H0V40.0001H8.52371V37.5259H2.41237V31.2578Z" fill="#54545B"/>
<path d="M22.0657 14.4327C24.1718 14.4327 25.8853 12.6753 25.8853 10.5152C25.8853 8.3551 24.1718 6.59766 22.0657 6.59766C19.9595 6.59766 18.2461 8.3551 18.2461 10.5152C18.2461 12.6753 19.9596 14.4327 22.0657 14.4327Z" fill="#54545B"/>
<path d="M6.43311 33.4022H32.5671V25.4171L27.8516 20.3139L22.1329 23.7257L14.1718 17.8906L6.43311 26.2653V33.4022Z" fill="#54545B"/>
</g>
<defs>
<clipPath id="clip0_1179_7538">
<rect width="39" height="40" fill="white"/>
</clipPath>
</defs>
</svg>
