<svg width="125" height="40" viewBox="0 0 125 40" fill="none" xmlns="http://www.w3.org/2000/svg">
    <path
        d="M20.0615 39.3117C30.7269 39.3117 39.373 30.6656 39.373 20.0002C39.373 9.33476 30.7269 0.688721 20.0615 0.688721C9.39604 0.688721 0.75 9.33476 0.75 20.0002C0.75 30.6656 9.39604 39.3117 20.0615 39.3117Z"
        fill="#D8A353" />
    <path
        d="M20.0617 35.6908C28.7273 35.6908 35.7522 28.6659 35.7522 20.0003C35.7522 11.3346 28.7273 4.30969 20.0617 4.30969C11.396 4.30969 4.37109 11.3346 4.37109 20.0003C4.37109 28.6659 11.396 35.6908 20.0617 35.6908Z"
        fill="#CE8E2E" />
    <path
        d="M20.0612 34.4839C28.0603 34.4839 34.5448 27.9993 34.5448 20.0003C34.5448 12.0012 28.0603 5.51666 20.0612 5.51666C12.0622 5.51666 5.57764 12.0012 5.57764 20.0003C5.57764 27.9993 12.0622 34.4839 20.0612 34.4839Z"
        fill="#F9BC61" />
    <path
        d="M25.8884 19.7926C26.4903 19.1924 26.9224 18.4434 27.1409 17.622C27.3594 16.8005 27.3564 15.9359 27.1322 15.116C26.9081 14.2961 26.4707 13.5502 25.8647 12.9541C25.2587 12.3581 24.5056 11.9333 23.682 11.7228V9.13745H21.2681V11.5514H18.8542V9.13745H16.4402V11.5514H12.8193V13.9653H15.2333V26.035H12.8193V28.4489H16.4402V30.8629H18.8542V28.4489H21.2681V30.8629H23.682V28.2763C24.5306 28.0598 25.304 27.6157 25.9188 26.992C26.5336 26.3683 26.9665 25.5886 27.1708 24.737C27.3751 23.8854 27.3431 22.9942 27.0781 22.1595C26.8132 21.3247 26.3255 20.5781 25.6675 20.0002C25.7423 19.9338 25.816 19.865 25.8884 19.7926ZM22.4751 26.035H17.6472V21.2071H22.4751C23.1153 21.2071 23.7293 21.4614 24.182 21.9141C24.6347 22.3668 24.889 22.9808 24.889 23.6211C24.889 24.2613 24.6347 24.8753 24.182 25.328C23.7293 25.7807 23.1153 26.035 22.4751 26.035ZM22.5499 18.7932C22.5246 18.7932 22.4702 18.8065 22.4751 18.7932H17.6472V13.9653H22.4751C23.1153 13.9554 23.7332 14.2002 24.1929 14.6459C24.6527 15.0916 24.9165 15.7016 24.9264 16.3418C24.9363 16.9821 24.6915 17.6 24.2459 18.0597C23.8002 18.5194 23.1901 18.7833 22.5499 18.7932Z"
        fill="white" />
    <path
        d="M62.75 39.3117C73.4154 39.3117 82.0614 30.6656 82.0614 20.0002C82.0614 9.33476 73.4154 0.688721 62.75 0.688721C52.0845 0.688721 43.4385 9.33476 43.4385 20.0002C43.4385 30.6656 52.0845 39.3117 62.75 39.3117Z"
        fill="#531E96" />
    <path
        d="M62.7501 35.6907C71.4158 35.6907 78.4407 28.6657 78.4407 20.0001C78.4407 11.3344 71.4158 4.30951 62.7501 4.30951C54.0845 4.30951 47.0596 11.3344 47.0596 20.0001C47.0596 28.6657 54.0845 35.6907 62.7501 35.6907Z"
        fill="#330F60" />
    <path
        d="M62.7497 34.4836C70.7488 34.4836 77.2333 27.9991 77.2333 20C77.2333 12.0009 70.7488 5.51642 62.7497 5.51642C54.7506 5.51642 48.2661 12.0009 48.2661 20C48.2661 27.9991 54.7506 34.4836 62.7497 34.4836Z"
        fill="#8526FE" />
    <path d="M69.9914 17.5875L62.7496 9.13635L55.5078 17.5875L62.7508 22.4142L69.9914 17.5875Z" fill="#B3AAB7" />
    <path d="M55.5068 21.207L62.7498 26.0348L69.9916 21.207L62.7498 30.8627L55.5068 21.207Z" fill="#B3AAB7" />
    <path d="M62.7505 26.0348V30.8627L69.9923 21.207L62.7505 26.0348Z" fill="#AD59D4" />
    <path d="M62.7505 9.13635L62.7517 22.4142L69.9923 17.5875L62.7505 9.13635Z" fill="#AD59D4" />
    <path d="M62.751 16.3793V22.4141L69.9916 17.5874L62.751 16.3793Z" fill="#53435B" />
    <path d="M55.5078 17.5874L62.7508 22.4141V16.3793L55.5078 17.5874Z" fill="#75697A" />
    <path
        d="M105.438 39.3117C116.104 39.3117 124.75 30.6656 124.75 20.0002C124.75 9.33476 116.104 0.688721 105.438 0.688721C94.773 0.688721 86.127 9.33476 86.127 20.0002C86.127 30.6656 94.773 39.3117 105.438 39.3117Z"
        fill="#B3AAB7" />
    <path
        d="M105.439 35.6907C114.104 35.6907 121.129 28.6657 121.129 20.0001C121.129 11.3344 114.104 4.30951 105.439 4.30951C96.773 4.30951 89.748 11.3344 89.748 20.0001C89.748 28.6657 96.773 35.6907 105.439 35.6907Z"
        fill="#5FE4D4" />
    <path
        d="M105.438 34.4836C113.437 34.4836 119.922 27.9991 119.922 20C119.922 12.0009 113.437 5.51642 105.438 5.51642C97.4391 5.51642 90.9546 12.0009 90.9546 20C90.9546 27.9991 97.4391 34.4836 105.438 34.4836Z"
        fill="#E4E7E7" />
    <path
        d="M107.852 18.7933H103.024C102.704 18.7932 102.397 18.666 102.171 18.4396L96.1357 12.4048L97.8424 10.6981L103.524 16.3793H107.352L113.033 10.6981L114.74 12.4048L108.705 18.4396C108.479 18.666 108.172 18.7932 107.852 18.7933ZM113.033 29.3023L107.352 23.6211H103.524L97.8424 29.3023L96.1357 27.5957L102.171 21.5608C102.397 21.3345 102.704 21.2073 103.024 21.2072H107.852C108.172 21.2073 108.479 21.3345 108.705 21.5608L114.74 27.5957L113.033 29.3023Z"
        fill="#53435B" />
</svg>