<svg width="824" height="149" viewBox="0 0 824 149" fill="none" xmlns="http://www.w3.org/2000/svg">
<path d="M0 49.9999H32.6V60.3999C36.6 56.1332 41.2 52.8666 46.4 50.5999C51.6 48.1999 57.1333 46.9999 63 46.9999C70.2 46.9999 75.9333 48.0666 80.2 50.1999C84.6 52.3332 88.1333 55.5332 90.8 59.7999C94.8 55.7999 99.6667 52.6666 105.4 50.3999C111.133 48.1332 116.933 46.9999 122.8 46.9999C135.467 46.9999 144.467 50.2666 149.8 56.7999C155.133 63.1999 157.8 72.4666 157.8 84.5999V146H124.2V89.5999C124.2 84.2666 123.2 80.3999 121.2 77.9999C119.2 75.5999 115.867 74.3999 111.2 74.3999C105.2 74.3999 100.333 76.5332 96.6 80.7999C96.7333 83.0666 96.8 86.5332 96.8 91.1999V146H63.2V88.1999C63.2 83.2666 62.3333 79.7332 60.6 77.5999C58.8667 75.4666 55.8 74.3999 51.4 74.3999C44.6 74.3999 38.7333 78.1999 33.8 85.7999V146H0V49.9999Z" fill="url(#paint0_linear_208_52)"/>
<path d="M193.605 37.1999C188.271 37.1999 183.805 35.4666 180.205 31.9999C176.605 28.5332 174.805 24.1332 174.805 18.7999C174.805 13.5999 176.605 9.26657 180.205 5.7999C183.805 2.1999 188.271 0.399902 193.605 0.399902C198.805 0.399902 203.205 2.1999 206.805 5.7999C210.538 9.26657 212.405 13.5999 212.405 18.7999C212.405 23.9999 210.538 28.3999 206.805 31.9999C203.205 35.4666 198.805 37.1999 193.605 37.1999ZM176.005 49.9999H211.205V146H176.005V49.9999Z" fill="url(#paint1_linear_208_52)"/>
<path d="M267.669 96.3999L229.069 49.9999H268.669L287.469 72.5999L306.269 49.9999H345.869L307.269 96.3999L348.469 146H309.269L287.469 120L265.869 146H226.469L267.669 96.3999Z" fill="url(#paint2_linear_208_52)"/>
<path d="M389.716 149C377.716 149 367.982 146.133 360.516 140.4C353.182 134.533 349.516 126.4 349.516 116C349.516 105.2 353.049 96.9332 360.116 91.1999C367.316 85.3332 377.582 82.3999 390.916 82.3999C396.116 82.3999 401.316 82.9999 406.516 84.1999C411.716 85.2666 416.182 86.7332 419.916 88.5999V86.5999C419.916 76.3332 411.516 71.1999 394.716 71.1999C382.982 71.1999 372.249 73.4666 362.516 77.9999V53.7999C366.782 51.7999 372.382 50.1999 379.316 48.9999C386.249 47.6666 393.449 46.9999 400.916 46.9999C418.782 46.9999 432.249 50.5999 441.316 57.7999C450.516 64.8666 455.116 74.7999 455.116 87.5999V146H422.116V137.8C418.516 141.267 413.982 144 408.516 146C403.049 148 396.782 149 389.716 149ZM400.116 127.4C404.249 127.4 408.116 126.6 411.716 125C415.316 123.267 418.049 121.067 419.916 118.4V110C414.182 106.133 407.649 104.2 400.316 104.2C395.649 104.2 392.049 105.2 389.516 107.2C386.982 109.2 385.716 112.133 385.716 116C385.716 119.6 386.916 122.4 389.316 124.4C391.849 126.4 395.449 127.4 400.116 127.4Z" fill="url(#paint3_linear_208_52)"/>
<path d="M472.07 49.9999H506.07V61.9999C509.804 57.7332 515.07 54.4666 521.87 52.1999C528.67 49.7999 536.204 48.5999 544.47 48.5999V75.5999C535.67 75.5999 527.87 76.8666 521.07 79.3999C514.404 81.9332 509.804 85.7332 507.27 90.7999V146H472.07V49.9999Z" fill="url(#paint4_linear_208_52)"/>
<path d="M596.092 149C584.225 149 575.225 145.733 569.092 139.2C563.092 132.533 560.092 123.467 560.092 112V74.3999H546.492V49.9999H560.092V21.1999H595.292V49.9999H617.292V74.3999H595.292V107.2C595.292 112.4 596.225 116.133 598.092 118.4C600.092 120.667 603.559 121.8 608.492 121.8C612.892 121.8 617.292 120.6 621.692 118.2V144.4C618.226 146 614.492 147.133 610.492 147.8C606.626 148.6 601.825 149 596.092 149Z" fill="url(#paint5_linear_208_52)"/>
<path d="M640.241 146C636.774 146 633.774 144.8 631.241 142.4C628.841 140 627.641 137.067 627.641 133.6C627.641 130 628.841 126.933 631.241 124.4C633.774 121.867 636.774 120.6 640.241 120.6C643.841 120.6 646.841 121.867 649.241 124.4C651.774 126.933 653.041 130 653.041 133.6C653.041 137.067 651.774 140 649.241 142.4C646.841 144.8 643.841 146 640.241 146Z" fill="url(#paint6_linear_208_52)"/>
<path d="M703.192 149C691.192 149 681.459 146.133 673.992 140.4C666.659 134.533 662.992 126.4 662.992 116C662.992 105.2 666.525 96.9332 673.592 91.1999C680.792 85.3332 691.059 82.3999 704.392 82.3999C709.592 82.3999 714.792 82.9999 719.992 84.1999C725.192 85.2666 729.659 86.7332 733.392 88.5999V86.5999C733.392 76.3332 724.992 71.1999 708.192 71.1999C696.459 71.1999 685.726 73.4666 675.992 77.9999V53.7999C680.259 51.7999 685.859 50.1999 692.792 48.9999C699.726 47.6666 706.926 46.9999 714.392 46.9999C732.259 46.9999 745.726 50.5999 754.792 57.7999C763.992 64.8666 768.592 74.7999 768.592 87.5999V146H735.592V137.8C731.992 141.267 727.459 144 721.992 146C716.526 148 710.259 149 703.192 149ZM713.592 127.4C717.725 127.4 721.592 126.6 725.192 125C728.792 123.267 731.526 121.067 733.392 118.4V110C727.659 106.133 721.126 104.2 713.792 104.2C709.126 104.2 705.526 105.2 702.992 107.2C700.459 109.2 699.192 112.133 699.192 116C699.192 119.6 700.392 122.4 702.792 124.4C705.326 126.4 708.925 127.4 713.592 127.4Z" fill="url(#paint7_linear_208_52)"/>
<path d="M804.347 37.1999C799.014 37.1999 794.547 35.4666 790.947 31.9999C787.347 28.5332 785.547 24.1332 785.547 18.7999C785.547 13.5999 787.347 9.26657 790.947 5.7999C794.547 2.1999 799.014 0.399902 804.347 0.399902C809.547 0.399902 813.947 2.1999 817.547 5.7999C821.28 9.26657 823.147 13.5999 823.147 18.7999C823.147 23.9999 821.28 28.3999 817.547 31.9999C813.947 35.4666 809.547 37.1999 804.347 37.1999ZM786.747 49.9999H821.947V146H786.747V49.9999Z" fill="url(#paint8_linear_208_52)"/>
<defs>
<linearGradient id="paint0_linear_208_52" x1="722.633" y1="150.11" x2="6.1215" y2="59.6126" gradientUnits="userSpaceOnUse">
<stop stop-color="#FB9A08"/>
<stop offset="0.5" stop-color="#C205E1"/>
<stop offset="1" stop-color="#3E00C0"/>
</linearGradient>
<linearGradient id="paint1_linear_208_52" x1="722.633" y1="150.11" x2="6.1215" y2="59.6126" gradientUnits="userSpaceOnUse">
<stop stop-color="#FB9A08"/>
<stop offset="0.5" stop-color="#C205E1"/>
<stop offset="1" stop-color="#3E00C0"/>
</linearGradient>
<linearGradient id="paint2_linear_208_52" x1="722.633" y1="150.11" x2="6.1215" y2="59.6126" gradientUnits="userSpaceOnUse">
<stop stop-color="#FB9A08"/>
<stop offset="0.5" stop-color="#C205E1"/>
<stop offset="1" stop-color="#3E00C0"/>
</linearGradient>
<linearGradient id="paint3_linear_208_52" x1="722.633" y1="150.11" x2="6.1215" y2="59.6126" gradientUnits="userSpaceOnUse">
<stop stop-color="#FB9A08"/>
<stop offset="0.5" stop-color="#C205E1"/>
<stop offset="1" stop-color="#3E00C0"/>
</linearGradient>
<linearGradient id="paint4_linear_208_52" x1="722.633" y1="150.11" x2="6.1215" y2="59.6126" gradientUnits="userSpaceOnUse">
<stop stop-color="#FB9A08"/>
<stop offset="0.5" stop-color="#C205E1"/>
<stop offset="1" stop-color="#3E00C0"/>
</linearGradient>
<linearGradient id="paint5_linear_208_52" x1="722.633" y1="150.11" x2="6.1215" y2="59.6126" gradientUnits="userSpaceOnUse">
<stop stop-color="#FB9A08"/>
<stop offset="0.5" stop-color="#C205E1"/>
<stop offset="1" stop-color="#3E00C0"/>
</linearGradient>
<linearGradient id="paint6_linear_208_52" x1="722.633" y1="150.11" x2="6.1215" y2="59.6126" gradientUnits="userSpaceOnUse">
<stop stop-color="#FB9A08"/>
<stop offset="0.5" stop-color="#C205E1"/>
<stop offset="1" stop-color="#3E00C0"/>
</linearGradient>
<linearGradient id="paint7_linear_208_52" x1="722.633" y1="150.11" x2="6.1215" y2="59.6126" gradientUnits="userSpaceOnUse">
<stop stop-color="#FB9A08"/>
<stop offset="0.5" stop-color="#C205E1"/>
<stop offset="1" stop-color="#3E00C0"/>
</linearGradient>
<linearGradient id="paint8_linear_208_52" x1="722.633" y1="150.11" x2="6.1215" y2="59.6126" gradientUnits="userSpaceOnUse">
<stop stop-color="#FB9A08"/>
<stop offset="0.5" stop-color="#C205E1"/>
<stop offset="1" stop-color="#3E00C0"/>
</linearGradient>
</defs>
</svg>
