<svg viewBox="0 0 33 32" fill="none" xmlns="http://www.w3.org/2000/svg">
    <path d="M20.8333 10.6663C20.8333 13.0596 18.8932 14.9997 16.5 14.9997C14.1067 14.9997 12.1666 13.0596 12.1666 10.6663C12.1666 8.27311 14.1067 6.33301 16.5 6.33301C18.8932 6.33301 20.8333 8.27311 20.8333 10.6663Z" stroke="currentColor" stroke-width="2" stroke-linecap="round"/>
    <path d="M20.5685 10.5C20.9664 9.81095 21.6216 9.30815 22.3902 9.10222C23.1587 8.89629 23.9776 9.0041 24.6666 9.40192C25.3557 9.79975 25.8585 10.455 26.0644 11.2235C26.2703 11.9921 26.1625 12.8109 25.7647 13.5C25.3669 14.1891 24.7116 14.6918 23.9431 14.8978C23.1745 15.1037 22.3557 14.9959 21.6666 14.5981C20.9776 14.2003 20.4748 13.545 20.2688 12.7765C20.0629 12.0079 20.1707 11.1891 20.5685 10.5L20.5685 10.5Z" stroke="currentColor" stroke-width="2"/>
    <path d="M7.2353 10.5C7.63312 9.81095 8.28838 9.30815 9.05692 9.10222C9.82545 8.89629 10.6443 9.0041 11.3334 9.40192C12.0224 9.79975 12.5252 10.455 12.7312 11.2235C12.9371 11.9921 12.8293 12.8109 12.4314 13.5C12.0336 14.1891 11.3784 14.6918 10.6098 14.8978C9.84129 15.1037 9.02243 14.9959 8.33337 14.5981C7.64432 14.2003 7.14153 13.545 6.9356 12.7765C6.72967 12.0079 6.83747 11.1891 7.2353 10.5L7.2353 10.5Z" stroke="currentColor" stroke-width="2"/>
    <path d="M23.0088 24.0003L22.0285 24.1978L22.1902 25.0003H23.0088V24.0003ZM28.2458 22.8993L27.2895 23.1917V23.1917L28.2458 22.8993ZM20.2078 19.6144L19.6029 18.818L18.4463 19.6965L19.6796 20.4635L20.2078 19.6144ZM27.3672 23.0003H23.0088V25.0003H27.3672V23.0003ZM27.2895 23.1917C27.2848 23.1765 27.2807 23.1465 27.2883 23.11C27.2955 23.0755 27.3101 23.0493 27.3241 23.0322C27.3514 22.9989 27.374 23.0003 27.3672 23.0003V25.0003C28.5294 25.0003 29.6058 23.9276 29.2021 22.6069L27.2895 23.1917ZM23.1667 19.667C25.7591 19.667 26.8385 21.7166 27.2895 23.1917L29.2021 22.6069C28.6981 20.9588 27.179 17.667 23.1667 17.667V19.667ZM20.8126 20.4107C21.3823 19.978 22.1353 19.667 23.1667 19.667V17.667C21.6915 17.667 20.5149 18.1253 19.6029 18.818L20.8126 20.4107ZM19.6796 20.4635C21.18 21.3967 21.7889 23.0082 22.0285 24.1978L23.9891 23.8029C23.7058 22.3961 22.9256 20.1271 20.7359 18.7652L19.6796 20.4635Z" fill="currentColor"/>
    <path d="M12.7923 19.6144L13.3204 20.4635L14.5537 19.6965L13.3971 18.818L12.7923 19.6144ZM4.75427 22.8993L5.71057 23.1917L4.75427 22.8993ZM9.99116 24.0003V25.0003H10.8098L10.9715 24.1978L9.99116 24.0003ZM9.83337 19.667C10.8647 19.667 11.6177 19.978 12.1874 20.4107L13.3971 18.818C12.4851 18.1253 11.3086 17.667 9.83337 17.667V19.667ZM5.71057 23.1917C6.16157 21.7166 7.241 19.667 9.83337 19.667V17.667C5.82108 17.667 4.3019 20.9588 3.79797 22.6069L5.71057 23.1917ZM5.63281 23.0003C5.62601 23.0003 5.64867 22.9989 5.67589 23.0322C5.68989 23.0493 5.70455 23.0755 5.71173 23.11C5.71934 23.1465 5.71521 23.1765 5.71057 23.1917L3.79797 22.6069C3.39417 23.9276 4.47065 25.0003 5.63281 25.0003V23.0003ZM9.99116 23.0003H5.63281V25.0003H9.99116V23.0003ZM10.9715 24.1978C11.2111 23.0082 11.82 21.3967 13.3204 20.4635L12.2641 18.7652C10.0744 20.1271 9.29417 22.3961 9.01084 23.8029L10.9715 24.1978Z" fill="currentColor"/>
    <path d="M16.5 18.667C21.5439 18.667 22.7717 22.483 23.0705 24.3409C23.1583 24.8862 22.719 25.3337 22.1667 25.3337H10.8334C10.2811 25.3337 9.84181 24.8862 9.92953 24.3409C10.2284 22.4831 11.4562 18.667 16.5 18.667Z" stroke="currentColor" stroke-width="2" stroke-linecap="round"/>
</svg>
