<svg viewBox="0 0 33 32" fill="none" xmlns="http://www.w3.org/2000/svg">
    <path d="M7.16663 17.0127C7.16663 15.2024 7.16663 14.2972 7.53257 13.5016C7.89852 12.7059 8.58578 12.1168 9.9603 10.9387L11.2936 9.79582C13.7781 7.66632 15.0203 6.60156 16.5 6.60156C17.9797 6.60156 19.2219 7.66632 21.7063 9.79582L23.0396 10.9387C24.4141 12.1168 25.1014 12.7059 25.4673 13.5016C25.8333 14.2972 25.8333 15.2024 25.8333 17.0127V22.6666C25.8333 25.1807 25.8333 26.4378 25.0522 27.2189C24.2712 27.9999 23.0141 27.9999 20.5 27.9999H12.5C9.9858 27.9999 8.72872 27.9999 7.94767 27.2189C7.16663 26.4378 7.16663 25.1807 7.16663 22.6666V17.0127Z" stroke="currentColor" stroke-width="2"/>
    <path d="M19.8333 28V21C19.8333 20.4477 19.3856 20 18.8333 20H14.1666C13.6143 20 13.1666 20.4477 13.1666 21V28" stroke="currentColor" stroke-width="2" stroke-linecap="round" stroke-linejoin="round"/>
</svg>
