<svg width="24" height="24" viewBox="0 0 24 24" fill="none" xmlns="http://www.w3.org/2000/svg">
<path d="M11.185 15.625L11.065 15.565C10.58 15.315 10.185 14.92 9.935 14.435L9.875 14.315C9.635 13.84 8.955 13.84 8.71 14.315L8.65 14.435C8.4 14.92 8.005 15.315 7.52 15.565L7.4 15.625C6.925 15.865 6.925 16.545 7.4 16.79L7.52 16.85C8.005 17.1 8.4 17.495 8.65 17.98L8.71 18.1C8.95 18.575 9.63 18.575 9.875 18.1L9.935 17.98C10.185 17.495 10.58 17.1 11.065 16.85L11.185 16.79C11.66 16.55 11.66 15.87 11.185 15.625Z" fill="white"/>
<path d="M16.33 10.57L16.17 10.49C15.67 10.235 15.27 9.835 15.01 9.33L14.93 9.17C14.655 8.63 14.105 8.295 13.5 8.295C12.895 8.295 12.345 8.63 12.07 9.17L11.99 9.33C11.735 9.83 11.335 10.23 10.83 10.49L10.67 10.57C10.13 10.845 9.795 11.395 9.795 12C9.795 12.605 10.13 13.155 10.67 13.43L10.83 13.51C11.33 13.765 11.73 14.165 11.99 14.67L12.07 14.83C12.345 15.37 12.895 15.705 13.5 15.705C14.105 15.705 14.655 15.37 14.93 14.83L15.01 14.67C15.265 14.17 15.665 13.77 16.17 13.51L16.33 13.43C16.87 13.155 17.205 12.605 17.205 12C17.205 11.395 16.87 10.845 16.33 10.57ZM15.65 12.1L15.49 12.18C14.705 12.58 14.08 13.205 13.68 13.99L13.6 14.15C13.6 14.15 13.57 14.21 13.505 14.21C13.44 14.21 13.415 14.165 13.41 14.15L13.33 13.99C12.93 13.205 12.305 12.58 11.52 12.18L11.36 12.1C11.36 12.1 11.3 12.07 11.3 12.005C11.3 11.94 11.345 11.915 11.36 11.91L11.52 11.83C12.305 11.43 12.93 10.805 13.33 10.02L13.41 9.86C13.41 9.86 13.44 9.8 13.505 9.8C13.57 9.8 13.595 9.845 13.6 9.86L13.68 10.02C14.08 10.805 14.705 11.43 15.49 11.83L15.65 11.91C15.65 11.91 15.71 11.94 15.71 12.005C15.71 12.07 15.665 12.095 15.65 12.1Z" fill="white"/>
<path d="M16.315 5.25H14.12C13.68 3.53 12.115 2.25 10.26 2.25H6.74C4.54 2.25 2.75 4.04 2.75 6.24V8.42C2.43 9.11 2.25 9.875 2.25 10.685V16.315C2.25 19.31 4.69 21.75 7.685 21.75H16.315C19.31 21.75 21.75 19.31 21.75 16.315V10.685C21.75 7.69 19.31 5.25 16.315 5.25ZM6.74 3.75H10.26C11.28 3.75 12.16 4.37 12.54 5.25H7.68C6.38 5.25 5.185 5.71 4.245 6.475V6.235C4.245 4.86 5.36 3.745 6.735 3.745L6.74 3.75ZM20.25 16.315C20.25 18.485 18.485 20.25 16.315 20.25H7.685C5.515 20.25 3.75 18.485 3.75 16.315V10.685C3.75 8.515 5.515 6.75 7.685 6.75H16.315C18.485 6.75 20.25 8.515 20.25 10.685V16.315Z" fill="white"/>
</svg>
