<svg width="24" height="24" viewBox="0 0 24 24" fill="none" xmlns="http://www.w3.org/2000/svg">
<path d="M10.235 9.85484C9.965 9.71484 9.745 9.49984 9.61 9.22984L9.575 9.15984C9.44 8.89484 9.065 8.89484 8.93 9.15984L8.895 9.22984C8.755 9.49984 8.54 9.71984 8.27 9.85484L8.2 9.88984C7.935 10.0248 7.935 10.3998 8.2 10.5348L8.27 10.5698C8.54 10.7098 8.76 10.9248 8.895 11.1948L8.93 11.2648C9.065 11.5298 9.44 11.5298 9.575 11.2648L9.61 11.1948C9.75 10.9248 9.965 10.7048 10.235 10.5698L10.305 10.5348C10.57 10.3998 10.57 10.0248 10.305 9.88984L10.235 9.85484Z" fill="white"/>
<path d="M11.98 11.5698L11.86 11.6298C11.385 11.8698 11.385 12.5498 11.86 12.7948L11.98 12.8548C12.465 13.1048 12.86 13.4998 13.11 13.9848L13.17 14.1048C13.41 14.5798 14.09 14.5798 14.335 14.1048L14.395 13.9848C14.645 13.4998 15.04 13.1048 15.525 12.8548L15.645 12.7948C16.12 12.5548 16.12 11.8748 15.645 11.6298L15.525 11.5698C15.04 11.3198 14.645 10.9248 14.395 10.4398L14.335 10.3198C14.095 9.84484 13.415 9.84484 13.17 10.3198L13.11 10.4398C12.86 10.9248 12.465 11.3198 11.98 11.5698Z" fill="white"/>
<path d="M19.79 4.98984L19.63 4.90984C19.13 4.65484 18.73 4.25484 18.475 3.75484L18.395 3.59484C18.12 3.05484 17.57 2.71984 16.965 2.71984C16.36 2.71984 15.81 3.05484 15.53 3.59484L15.45 3.75484C15.195 4.25484 14.795 4.65484 14.295 4.90984L14.135 4.98984C13.595 5.26484 13.26 5.81484 13.26 6.42484C13.26 7.03484 13.595 7.57984 14.135 7.85984L14.295 7.93984C14.795 8.19484 15.195 8.59484 15.45 9.09484L15.53 9.25484C15.805 9.79484 16.355 10.1298 16.965 10.1298C17.575 10.1298 18.12 9.79484 18.4 9.25484L18.48 9.09484C18.735 8.59484 19.135 8.19484 19.635 7.93984L19.795 7.85984C20.335 7.58484 20.67 7.03484 20.67 6.42984C20.67 5.82484 20.335 5.27484 19.795 4.99484L19.79 4.98984ZM19.11 6.51984L18.95 6.59984C18.165 6.99984 17.54 7.62484 17.14 8.40984L17.06 8.56984C17.06 8.56984 17.03 8.62984 16.965 8.62984C16.9 8.62984 16.875 8.58484 16.87 8.56984L16.79 8.40984C16.39 7.62484 15.765 6.99984 14.98 6.59984L14.82 6.51984C14.82 6.51984 14.76 6.48984 14.76 6.42484C14.76 6.35984 14.805 6.33484 14.82 6.32984L14.98 6.24984C15.765 5.84984 16.39 5.22484 16.79 4.43984L16.87 4.27984C16.87 4.27984 16.9 4.21984 16.965 4.21984C17.03 4.21984 17.055 4.25984 17.06 4.27984L17.14 4.43984C17.54 5.22484 18.165 5.84984 18.95 6.24984L19.11 6.32984C19.11 6.32984 19.17 6.35984 19.17 6.42484C19.17 6.48984 19.125 6.51484 19.11 6.51984Z" fill="white"/>
<path d="M19.25 9.46484C18.835 9.46484 18.5 9.79984 18.5 10.2148C18.5 13.7998 15.585 16.7148 12 16.7148C8.415 16.7148 5.5 13.7998 5.5 10.2148C5.5 6.62984 8.415 3.71484 12 3.71484C12.61 3.71484 13.215 3.79984 13.795 3.96484C14.195 4.07984 14.61 3.84984 14.72 3.44984C14.835 3.04984 14.605 2.63484 14.205 2.52484C13.49 2.31984 12.75 2.21484 12 2.21484C7.59 2.21484 4 5.80484 4 10.2148C4 12.3148 4.82 14.2198 6.15 15.6498L5.29 18.2248C5.265 18.2998 5.25 18.3798 5.25 18.4598C5.25 19.7898 7.655 21.7098 12 21.7098C16.345 21.7098 18.75 19.7898 18.75 18.4598C18.75 18.3798 18.735 18.2998 18.71 18.2248L17.85 15.6498C19.18 14.2198 20 12.3148 20 10.2148C20 9.79984 19.665 9.46484 19.25 9.46484ZM6.785 18.4848L7.37 16.7248C7.955 17.1398 8.595 17.4798 9.28 17.7248L8.715 19.7048C7.57 19.3048 6.955 18.7598 6.785 18.4798V18.4848Z" fill="white"/>
</svg>
