<svg width="24" height="24" viewBox="0 0 24 24" fill="none" xmlns="http://www.w3.org/2000/svg">
<path d="M9.35506 5.83027L9.47506 5.89027C9.96006 6.14027 10.3551 6.53527 10.6051 7.02027L10.6651 7.14027C10.9051 7.61527 11.5851 7.61527 11.8301 7.14027L11.8901 7.02027C12.1401 6.53527 12.5351 6.14027 13.0201 5.89027L13.1401 5.83027C13.6151 5.59027 13.6151 4.91027 13.1401 4.66527L13.0201 4.60527C12.5351 4.35527 12.1401 3.96027 11.8901 3.47527L11.8301 3.35527C11.5901 2.88027 10.9101 2.88027 10.6651 3.35527L10.6051 3.47527C10.3551 3.96027 9.96006 4.35527 9.47506 4.60527L9.35506 4.66527C8.88006 4.90527 8.88006 5.58527 9.35506 5.83027Z" fill="white"/>
<path d="M10.3001 10.5153C10.7901 10.2653 10.7901 9.57027 10.3001 9.32027L9.57006 8.94527C8.92006 8.61027 8.39006 8.08027 8.05506 7.43027L7.68006 6.70027C7.43006 6.21027 6.73506 6.21027 6.48506 6.70027L6.11006 7.43027C5.77506 8.08027 5.24506 8.61027 4.59506 8.94527L3.86506 9.32027C3.37506 9.57027 3.37506 10.2653 3.86506 10.5153L4.59506 10.8903C5.24506 11.2253 5.77506 11.7553 6.11006 12.4053L6.48506 13.1353C6.73506 13.6253 7.43006 13.6253 7.68006 13.1353L8.05506 12.4053C8.39006 11.7553 8.92006 11.2253 9.57006 10.8903L10.3001 10.5153Z" fill="white"/>
<path d="M19.6801 13.5053L18.9401 13.1253C18.0451 12.6703 17.3301 11.9553 16.8751 11.0603L16.4951 10.3203C16.1601 9.66027 15.4901 9.25027 14.7501 9.25027C14.0101 9.25027 13.3401 9.66027 13.0051 10.3203L12.6251 11.0603C12.1701 11.9553 11.4551 12.6703 10.5601 13.1253L9.82006 13.5053C9.16006 13.8403 8.75006 14.5103 8.75006 15.2503C8.75006 15.9903 9.16006 16.6603 9.82006 16.9953L10.5601 17.3753C11.4551 17.8303 12.1701 18.5453 12.6251 19.4403L13.0051 20.1803C13.3401 20.8403 14.0101 21.2503 14.7501 21.2503C15.4901 21.2503 16.1601 20.8403 16.4951 20.1803L16.8751 19.4403C17.3301 18.5453 18.0451 17.8303 18.9401 17.3753L19.6801 16.9953C20.3401 16.6603 20.7501 15.9903 20.7501 15.2503C20.7501 14.5103 20.3401 13.8403 19.6801 13.5053ZM19.0001 15.6603L18.2601 16.0403C17.0801 16.6403 16.1401 17.5803 15.5401 18.7603L15.1601 19.5003C15.0451 19.7253 14.8351 19.7503 14.7501 19.7503C14.6651 19.7503 14.4551 19.7253 14.3401 19.5003L13.9601 18.7603C13.3601 17.5803 12.4201 16.6403 11.2401 16.0403L10.5001 15.6603C10.2751 15.5453 10.2501 15.3353 10.2501 15.2503C10.2501 15.1653 10.2751 14.9553 10.5001 14.8403L11.2401 14.4603C12.4201 13.8603 13.3601 12.9203 13.9601 11.7403L14.3401 11.0003C14.4551 10.7753 14.6651 10.7503 14.7501 10.7503C14.8351 10.7503 15.0451 10.7753 15.1601 11.0003L15.5401 11.7403C16.1401 12.9203 17.0801 13.8603 18.2601 14.4603L19.0001 14.8403C19.2251 14.9553 19.2501 15.1653 19.2501 15.2503C19.2501 15.3353 19.2251 15.5453 19.0001 15.6603Z" fill="white"/>
</svg>
