<svg width="26" height="18" viewBox="0 0 19 18" fill="none" xmlns="http://www.w3.org/2000/svg">
<path d="M14 0C14.8278 -3.6182e-08 15.4716 0.00157116 15.9961 0.0283203C13.748 0.278838 12 2.18508 12 4.5V8L11.9014 17.9668L9 17L6 18L3 17L0 18V4C-8.23963e-08 2.11438 0.000150885 1.17172 0.585938 0.585938C1.17172 0.000150814 2.11438 8.24236e-08 4 0H14ZM3 11C2.44772 11 2 11.4477 2 12C2 12.5523 2.44772 13 3 13H7C7.55228 13 8 12.5523 8 12C8 11.4477 7.55228 11 7 11H3ZM3 7C2.44772 7 2 7.44772 2 8C2 8.55229 2.44772 9 3 9H5L5.10254 8.99512C5.60667 8.94379 6 8.51768 6 8C6 7.48232 5.60667 7.05621 5.10254 7.00488L5 7H3ZM16.5 2C17.8807 2 19 3.11929 19 4.5V8H14V4.5C14 3.11929 15.1193 2 16.5 2ZM3 3C2.44772 3 2 3.44772 2 4C2 4.55228 2.44772 5 3 5H9C9.55229 5 10 4.55228 10 4C10 3.44772 9.55229 3 9 3H3Z" fill="white"/>
</svg>
