<svg width="25" height="24" viewBox="0 0 25 24" fill="none" xmlns="http://www.w3.org/2000/svg">
<path d="M22.5 14C22.5 16.8284 22.4998 18.2424 21.6211 19.1211C20.7424 19.9998 19.3284 20 16.5 20H8.5C5.67157 20 4.25759 19.9998 3.37891 19.1211C2.50023 18.2424 2.5 16.8284 2.5 14V12H22.5V14ZM7.5 15C6.94772 15 6.5 15.4477 6.5 16C6.5 16.5523 6.94772 17 7.5 17H7.50977L7.6123 16.9951C8.11655 16.9439 8.50977 16.5178 8.50977 16C8.50977 15.4822 8.11655 15.0561 7.6123 15.0049L7.50977 15H7.5ZM16.5 5C19.3284 5 20.7424 5.00023 21.6211 5.87891C22.3895 6.64729 22.4859 7.82497 22.498 10H2.50195C2.51406 7.82497 2.61052 6.64729 3.37891 5.87891C4.25759 5.00023 5.67157 5 8.5 5H16.5Z" fill="#E65DA9"/>
</svg>
