<svg width="25" height="24" viewBox="0 0 25 24" fill="none" xmlns="http://www.w3.org/2000/svg">
<path d="M4 15.5L5.91016 13.5908C7.2558 12.2452 7.92839 11.5722 8.65723 11.5107C9.02416 11.4798 9.39249 11.5508 9.72168 11.7158C10.3754 12.0437 10.7504 12.918 11.5 14.667L11.5537 14.792C11.8795 15.5521 12.0424 15.9323 12.3105 16.0986C12.5191 16.2277 12.7682 16.2757 13.0098 16.2334C13.3207 16.1788 13.6139 15.8861 14.1992 15.3008L14.3125 15.1875C15.0336 14.4664 15.3948 14.1061 15.8037 13.9541C16.253 13.7872 16.747 13.7872 17.1963 13.9541C17.6052 14.1061 17.9664 14.4664 18.6875 15.1875L19.4395 15.9395C20.1186 16.6186 21.0396 17 22 17V4.19043C22.4994 5.39198 22.5 7.16189 22.5 10V14C22.5 17.7712 22.4997 19.6575 21.3281 20.8291C20.1565 22.0003 18.2709 22 14.5 22H10.5C6.72913 22 4.84347 22.0003 3.67188 20.8291C2.5003 19.6575 2.5 17.7712 2.5 14V10C2.5 6.22896 2.50033 4.34342 3.67188 3.17188C3.77545 3.06831 3.88445 2.97376 4 2.8877V15.5Z" fill="#E65DA9"/>
<path d="M10.5 3H14.5C16.4139 3 17.7487 3.00229 18.7559 3.1377C19.6119 3.2528 20.1158 3.45101 20.4756 3.74609L20.6211 3.87891C20.9901 4.24792 21.2308 4.7658 21.3623 5.74414C21.4977 6.75127 21.5 8.08611 21.5 10V14C21.5 15.9139 21.4977 17.2487 21.3623 18.2559C21.2308 19.2342 20.9901 19.7521 20.6211 20.1211C20.2521 20.4901 19.7342 20.7308 18.7559 20.8623C17.7487 20.9977 16.4139 21 14.5 21H10.5C8.58611 21 7.25127 20.9977 6.24414 20.8623C5.38805 20.7472 4.88417 20.549 4.52441 20.2539L4.37891 20.1211C4.00989 19.7521 3.76923 19.2342 3.6377 18.2559C3.50229 17.2487 3.5 15.9139 3.5 14V10C3.5 8.08611 3.50229 6.75127 3.6377 5.74414C3.76923 4.7658 4.00989 4.24792 4.37891 3.87891C4.74792 3.50989 5.2658 3.26923 6.24414 3.1377C7.25127 3.00229 8.58611 3 10.5 3Z" stroke="#E65DA9" stroke-width="2"/>
<circle cx="15.5" cy="9" r="2" fill="#E65DA9"/>
</svg>
