<svg width="20" height="21" viewBox="0 0 20 21" fill="none" xmlns="http://www.w3.org/2000/svg">
<path d="M9.50016 12H8.96336C7.55492 12 6.8507 12 6.55578 11.5385C6.26085 11.0769 6.55671 10.4379 7.14842 9.15975L9.04643 5.06006C9.42062 4.25182 9.60771 3.8477 9.80394 3.89091C10.0002 3.93413 10.0002 4.37946 10.0002 5.27013V8.5C10.0002 8.7357 10.0002 8.85355 10.0734 8.92678C10.1466 9 10.2645 9 10.5002 9H11.037C12.4454 9 13.1496 9 13.4445 9.46154C13.7395 9.92308 13.4436 10.5621 12.8519 11.8402L10.9539 15.9399C10.5797 16.7482 10.3926 17.1523 10.1964 17.1091C10.0002 17.0659 10.0002 16.6205 10.0002 15.7299V12.5C10.0002 12.2643 10.0002 12.1464 9.92694 12.0732C9.85372 12 9.73587 12 9.50016 12Z" fill="black"/>
</svg>
