<svg width="25" height="24" viewBox="0 0 25 24" fill="none" xmlns="http://www.w3.org/2000/svg">
<path d="M10.735 9.85484C10.465 9.71484 10.245 9.49984 10.11 9.22984L10.075 9.15984C9.94 8.89484 9.565 8.89484 9.43 9.15984L9.395 9.22984C9.255 9.49984 9.04 9.71984 8.77 9.85484L8.7 9.88984C8.435 10.0248 8.435 10.3998 8.7 10.5348L8.77 10.5698C9.04 10.7098 9.26 10.9248 9.395 11.1948L9.43 11.2648C9.565 11.5298 9.94 11.5298 10.075 11.2648L10.11 11.1948C10.25 10.9248 10.465 10.7048 10.735 10.5698L10.805 10.5348C11.07 10.3998 11.07 10.0248 10.805 9.88984L10.735 9.85484Z" fill="#E65DA9"/>
<path d="M12.48 11.5698L12.36 11.6298C11.885 11.8698 11.885 12.5498 12.36 12.7948L12.48 12.8548C12.965 13.1048 13.36 13.4998 13.61 13.9848L13.67 14.1048C13.91 14.5798 14.59 14.5798 14.835 14.1048L14.895 13.9848C15.145 13.4998 15.54 13.1048 16.025 12.8548L16.145 12.7948C16.62 12.5548 16.62 11.8748 16.145 11.6298L16.025 11.5698C15.54 11.3198 15.145 10.9248 14.895 10.4398L14.835 10.3198C14.595 9.84484 13.915 9.84484 13.67 10.3198L13.61 10.4398C13.36 10.9248 12.965 11.3198 12.48 11.5698Z" fill="#E65DA9"/>
<path d="M20.29 4.98984L20.13 4.90984C19.63 4.65484 19.23 4.25484 18.975 3.75484L18.895 3.59484C18.62 3.05484 18.07 2.71984 17.465 2.71984C16.86 2.71984 16.31 3.05484 16.03 3.59484L15.95 3.75484C15.695 4.25484 15.295 4.65484 14.795 4.90984L14.635 4.98984C14.095 5.26484 13.76 5.81484 13.76 6.42484C13.76 7.03484 14.095 7.57984 14.635 7.85984L14.795 7.93984C15.295 8.19484 15.695 8.59484 15.95 9.09484L16.03 9.25484C16.305 9.79484 16.855 10.1298 17.465 10.1298C18.075 10.1298 18.62 9.79484 18.9 9.25484L18.98 9.09484C19.235 8.59484 19.635 8.19484 20.135 7.93984L20.295 7.85984C20.835 7.58484 21.17 7.03484 21.17 6.42984C21.17 5.82484 20.835 5.27484 20.295 4.99484L20.29 4.98984ZM19.61 6.51984L19.45 6.59984C18.665 6.99984 18.04 7.62484 17.64 8.40984L17.56 8.56984C17.56 8.56984 17.53 8.62984 17.465 8.62984C17.4 8.62984 17.375 8.58484 17.37 8.56984L17.29 8.40984C16.89 7.62484 16.265 6.99984 15.48 6.59984L15.32 6.51984C15.32 6.51984 15.26 6.48984 15.26 6.42484C15.26 6.35984 15.305 6.33484 15.32 6.32984L15.48 6.24984C16.265 5.84984 16.89 5.22484 17.29 4.43984L17.37 4.27984C17.37 4.27984 17.4 4.21984 17.465 4.21984C17.53 4.21984 17.555 4.25984 17.56 4.27984L17.64 4.43984C18.04 5.22484 18.665 5.84984 19.45 6.24984L19.61 6.32984C19.61 6.32984 19.67 6.35984 19.67 6.42484C19.67 6.48984 19.625 6.51484 19.61 6.51984Z" fill="#E65DA9"/>
<path d="M19.75 9.46484C19.335 9.46484 19 9.79984 19 10.2148C19 13.7998 16.085 16.7148 12.5 16.7148C8.915 16.7148 6 13.7998 6 10.2148C6 6.62984 8.915 3.71484 12.5 3.71484C13.11 3.71484 13.715 3.79984 14.295 3.96484C14.695 4.07984 15.11 3.84984 15.22 3.44984C15.335 3.04984 15.105 2.63484 14.705 2.52484C13.99 2.31984 13.25 2.21484 12.5 2.21484C8.09 2.21484 4.5 5.80484 4.5 10.2148C4.5 12.3148 5.32 14.2198 6.65 15.6498L5.79 18.2248C5.765 18.2998 5.75 18.3798 5.75 18.4598C5.75 19.7898 8.155 21.7098 12.5 21.7098C16.845 21.7098 19.25 19.7898 19.25 18.4598C19.25 18.3798 19.235 18.2998 19.21 18.2248L18.35 15.6498C19.68 14.2198 20.5 12.3148 20.5 10.2148C20.5 9.79984 20.165 9.46484 19.75 9.46484ZM7.285 18.4848L7.87 16.7248C8.455 17.1398 9.095 17.4798 9.78 17.7248L9.215 19.7048C8.07 19.3048 7.455 18.7598 7.285 18.4798V18.4848Z" fill="#E65DA9"/>
</svg>
