<svg width="25" height="24" viewBox="0 0 25 24" fill="none" xmlns="http://www.w3.org/2000/svg">
<path d="M4.5 4V3H3.5V4H4.5ZM11.7929 12.7071C12.1834 13.0976 12.8166 13.0976 13.2071 12.7071C13.5976 12.3166 13.5976 11.6834 13.2071 11.2929L11.7929 12.7071ZM4.5 10H5.5V4H4.5H3.5V10H4.5ZM4.5 4V5H10.5V4V3H4.5V4ZM4.5 4L3.79289 4.70711L11.7929 12.7071L12.5 12L13.2071 11.2929L5.20711 3.29289L4.5 4Z" fill="#E65DA9"/>
<path d="M4.5 20V21H3.5V20H4.5ZM11.7929 11.2929C12.1834 10.9024 12.8166 10.9024 13.2071 11.2929C13.5976 11.6834 13.5976 12.3166 13.2071 12.7071L11.7929 11.2929ZM4.5 14H5.5V20H4.5H3.5V14H4.5ZM4.5 20V19H10.5V20V21H4.5V20ZM4.5 20L3.79289 19.2929L11.7929 11.2929L12.5 12L13.2071 12.7071L5.20711 20.7071L4.5 20Z" fill="#E65DA9"/>
<path d="M20.5 4V3H21.5V4H20.5ZM13.2071 12.7071C12.8166 13.0976 12.1834 13.0976 11.7929 12.7071C11.4024 12.3166 11.4024 11.6834 11.7929 11.2929L13.2071 12.7071ZM20.5 10H19.5V4H20.5H21.5V10H20.5ZM20.5 4V5H14.5V4V3H20.5V4ZM20.5 4L21.2071 4.70711L13.2071 12.7071L12.5 12L11.7929 11.2929L19.7929 3.29289L20.5 4Z" fill="#E65DA9"/>
<path d="M20.5 20V21H21.5V20H20.5ZM13.2071 11.2929C12.8166 10.9024 12.1834 10.9024 11.7929 11.2929C11.4024 11.6834 11.4024 12.3166 11.7929 12.7071L13.2071 11.2929ZM20.5 14H19.5V20H20.5H21.5V14H20.5ZM20.5 20V19H14.5V20V21H20.5V20ZM20.5 20L21.2071 19.2929L13.2071 11.2929L12.5 12L11.7929 12.7071L19.7929 20.7071L20.5 20Z" fill="#E65DA9"/>
</svg>
