<svg width="20" height="20" viewBox="0 0 20 20" fill="none" xmlns="http://www.w3.org/2000/svg">
<path d="M5.24419 7.74335C5.16694 7.82045 5.10565 7.91202 5.06383 8.01283C5.02201 8.11364 5.00049 8.22171 5.00049 8.33085C5.00049 8.43999 5.02201 8.54806 5.06383 8.64887C5.10565 8.74968 5.16694 8.84126 5.24419 8.91835L9.06919 12.7434C9.39419 13.0684 9.91919 13.0684 10.2442 12.7434L14.0692 8.91835C14.1463 8.8412 14.2075 8.74961 14.2493 8.6488C14.2911 8.548 14.3125 8.43996 14.3125 8.33085C14.3125 8.22174 14.2911 8.1137 14.2493 8.0129C14.2075 7.91209 14.1463 7.8205 14.0692 7.74335C13.992 7.6662 13.9004 7.605 13.7996 7.56324C13.6988 7.52149 13.5908 7.5 13.4817 7.5C13.3726 7.5 13.2645 7.52149 13.1637 7.56324C13.0629 7.605 12.9713 7.6662 12.8942 7.74335L9.65252 10.9767L6.41919 7.74335C6.09419 7.42668 5.56086 7.42668 5.24419 7.74335Z" fill="white"/>
</svg>
