<svg width="144" height="16" viewBox="0 0 144 16" fill="none" xmlns="http://www.w3.org/2000/svg">
<path d="M112.285 0.0905893C114.248 0.0648588 116.211 0.0568055 118.174 0.0664299C118.686 0.654206 119.194 1.34186 119.566 2.01552L119.506 2.13514C119.139 1.64783 118.471 0.282388 117.795 0.200188C117.774 0.197831 117.754 0.204018 117.734 0.205933C117.657 0.304927 117.637 0.294763 117.644 0.42322C117.67 0.861916 117.618 1.0767 117.295 1.40403C116.486 2.22323 115.444 2.31162 114.444 2.78346C112.871 3.52621 111.337 5.26125 111.353 6.99349C111.354 7.0343 111.355 7.07511 111.356 7.11606C111.358 7.26985 111.337 7.41481 111.318 7.56698C111.304 7.68793 111.308 7.64005 111.315 7.78648C110.313 6.73039 110.287 5.41828 110.265 4.07052C110.262 3.89861 110.122 3.78783 110.014 3.65216C109.184 4.73564 108.544 6.00253 107.636 7.02281L107.545 6.93C108.05 6.05659 108.712 5.21205 109.289 4.37752C110.279 2.94536 111.254 1.49727 112.285 0.0905893Z" fill="url(#paint0_linear_1296_5749)"/>
<path d="M134.727 15.1169C134.871 15.0996 134.925 15.0855 135.06 15.0214C135.807 13.7918 137.897 8.97131 137.906 7.64962C137.815 7.4923 137.745 7.38093 137.747 7.19458C137.747 7.15687 137.754 7.1196 137.758 7.08203L141.962 13.0152C142.638 13.9664 143.413 14.9111 144 15.9109C141.126 15.9969 138.215 15.9974 135.34 15.9526C135.138 15.6837 134.889 15.4068 134.727 15.1169Z" fill="url(#paint1_linear_1296_5749)"/>
<path d="M129.526 7.87971C128.951 7.22241 124.468 0.786628 124.406 0.490531C124.37 0.319796 124.417 0.280906 124.508 0.140813C125.084 -0.0966548 131.72 0.0278236 132.744 0.0740796C133.032 0.3799 133.289 0.694854 133.493 1.05768C133.448 1.30546 133.548 1.29029 133.568 1.4871C133.576 1.56635 133.428 1.84816 133.393 1.93139C132.9 3.09133 132.275 3.74039 131.69 4.78174C131.127 5.78361 130.751 6.84219 130.039 7.77409L129.668 7.75332L129.526 7.87971Z" fill="url(#paint2_linear_1296_5749)"/>
<path d="M107.545 6.9341L107.636 7.0269C108.544 6.00662 109.184 4.73973 110.014 3.65625C110.122 3.79192 110.262 3.9027 110.265 4.07462C110.287 5.42238 110.313 6.73449 111.315 7.79057C111.635 7.95114 112.153 8.33474 112.49 8.34962C110.745 10.8695 109.018 13.4189 107.198 15.8902C106.008 15.9467 102.554 16.0614 101.532 15.8318C101.348 15.7902 101.411 15.8306 101.315 15.6861C101.337 15.5666 101.361 15.4747 101.431 15.3708C101.703 14.9641 102.045 14.5896 102.334 14.1908L105.041 10.4263C105.857 9.29374 106.624 7.98237 107.545 6.9341Z" fill="url(#paint3_linear_1296_5749)"/>
<path d="M133.494 1.05859C134.946 3.04333 136.351 5.06976 137.759 7.08308C137.755 7.12064 137.748 7.15791 137.748 7.19562C137.746 7.38197 137.816 7.49334 137.907 7.65067C137.898 8.97235 135.808 13.7929 135.061 15.0225C134.926 15.0865 134.871 15.1007 134.727 15.1179C133.025 12.6861 131.18 10.3459 129.527 7.88062L129.669 7.75423L130.04 7.775C130.752 6.8431 131.128 5.78452 131.691 4.78265C132.276 3.7413 132.901 3.09224 133.393 1.9323C133.429 1.84907 133.577 1.56726 133.569 1.48801C133.548 1.2912 133.449 1.30637 133.494 1.05859Z" fill="url(#paint4_linear_1296_5749)"/>
<path d="M21.9777 0.100883C23.5641 0.0826168 25.1505 0.0810937 26.7368 0.0963159L26.7479 15.9116L21.9678 15.9207L21.9777 0.100883Z" fill="#FEFEFE"/>
<path d="M86.2257 0.0798054C89.3388 0.0283935 92.4587 0.06684 95.5726 0.064925C97.4216 0.0637465 99.3356 -0.0412849 101.175 0.0874659C101.408 0.10367 101.489 0.12842 101.663 0.275585C101.762 0.825354 100.535 2.93309 100.31 3.59718L100.276 3.69647C98.6592 3.69912 97.0424 3.68144 95.4258 3.64344C95.4384 6.24821 95.4344 8.85294 95.414 11.4576L95.4063 15.9864L90.678 15.9774C90.665 11.8723 90.674 7.76734 90.7051 3.66244C88.7059 3.65213 86.6964 3.7305 84.6992 3.65876C85.1226 2.44358 85.6769 1.24873 86.2257 0.0798054Z" fill="#FEFEFE"/>
<path d="M111.315 7.78994C111.308 7.64351 111.304 7.69139 111.318 7.57045C111.337 7.41827 111.358 7.27332 111.356 7.11952C111.355 7.07857 111.354 7.03777 111.353 6.99696C111.337 5.26472 112.871 3.52967 114.444 2.78692C115.444 2.31508 116.486 2.2267 117.295 1.40749C117.618 1.08016 117.67 0.865381 117.644 0.426685C117.637 0.298229 117.657 0.308392 117.734 0.209398C117.754 0.207483 117.774 0.201296 117.795 0.203653C118.471 0.285853 119.139 1.65129 119.506 2.1386L119.566 2.01899C121.106 3.85229 122.451 6.05077 123.845 8.00222C125.541 10.3741 127.412 12.6866 128.928 15.1662C129.055 15.3755 129.142 15.5374 129.129 15.7849C128.959 15.9077 128.861 15.9026 128.646 15.9124C126.873 15.9942 125.056 15.92 123.279 15.9208L113.162 15.9132C112.876 15.9295 112.583 15.908 112.297 15.9002C112.551 15.2389 114.429 12.4378 114.989 12.0928C115.591 11.9841 116.305 12.0403 116.92 12.0374L120.66 12.0237C120.02 11.2684 119.473 10.4367 118.904 9.63267C117.674 7.89277 116.492 6.11294 115.23 4.39469C114.305 5.70596 113.392 7.02406 112.49 8.34899C112.153 8.33411 111.635 7.95051 111.315 7.78994Z" fill="url(#paint5_linear_1296_5749)"/>
<path d="M112.297 15.9012C112.552 15.2399 114.429 12.4388 114.989 12.0938C115.361 12.114 115.733 12.1388 116.104 12.1683V12.1709L116.148 12.1926C115.506 12.2512 115.115 12.1706 114.67 12.6712C114.269 13.1226 113.953 13.6782 113.628 14.1801C113.645 14.4404 113.757 15.0353 113.681 15.2608C113.612 15.4673 113.437 15.5235 113.474 15.7624C113.954 15.7966 114.433 15.7944 114.914 15.7959L115.028 15.6418L114.995 15.8238L115.033 15.8157C114.422 15.8255 113.759 15.7872 113.162 15.9141C112.876 15.9305 112.583 15.909 112.297 15.9012Z" fill="#C2C368"/>
<path d="M14.3521 0.0870841C15.8878 0.0669023 17.4259 0.0867906 18.9617 0.0891476L18.9619 15.9165L14.1832 15.9338L14.2058 11.03C14.1897 9.47411 14.2107 7.91864 14.2687 6.36362C12.7294 8.29115 11.108 10.1547 9.40434 11.9544C7.72315 10.2354 6.28177 8.27602 4.76145 6.42858C4.78294 9.58332 4.78509 12.7381 4.76789 15.8929C3.18367 15.8912 1.59954 15.9013 0.0154917 15.9233C-0.0375928 10.6486 0.0655379 5.37177 0.0317739 0.0962192C1.58485 0.0856127 3.13791 0.0867391 4.69095 0.0996044L9.51076 6.06C11.1608 4.25248 12.8683 2.03323 14.3521 0.0870841Z" fill="#FEFEFE"/>
<path d="M68.5636 0.0795018C70.2748 0.0132112 72.0103 0.0687496 73.7243 0.0683077C75.3454 0.0678657 77.0411 -0.0326029 78.6456 0.169657C79.0699 0.220234 79.4876 0.301109 79.8988 0.412281C80.3099 0.523452 80.7097 0.663546 81.0982 0.832562C82.4662 1.44229 83.5625 2.51045 84.0664 3.86985C84.5919 5.28773 84.5238 6.98491 83.825 8.33797C83.1173 9.70813 82.0787 10.4783 80.5715 10.9685C82.0849 12.6177 83.7692 14.1872 85.17 15.9193L84.3034 15.94C82.841 15.9492 81.3787 15.9453 79.9164 15.9284C78.5114 14.5952 77.1905 13.0347 75.9724 11.545C75.1378 11.5871 74.2966 11.5691 73.4608 11.5703L73.4467 15.9521C71.8178 15.9702 70.1876 15.9549 68.5586 15.953L68.5636 0.0795018ZM73.4344 3.58553C73.4401 5.14277 73.4705 6.70398 73.4065 8.26019C74.6699 8.26417 76.7928 8.46452 77.9521 8.10802C78.3087 7.99842 78.5854 7.80323 78.8798 7.59169C79.3754 7.10497 79.6415 6.68366 79.6426 5.99099C79.6434 5.3823 79.4924 4.80366 79.0159 4.36997C77.7388 3.20753 75.0888 3.70058 73.4344 3.58553Z" fill="#FEFEFE"/>
<path d="M41.6982 0.065021C43.4333 0.0373263 45.1755 0.0732676 46.911 0.0804859C46.3808 0.923996 45.6755 1.71536 45.05 2.49891C43.5987 4.31689 42.0688 6.09319 40.6601 7.93945C41.6291 9.10351 42.5644 10.291 43.5407 11.4505C44.7227 12.8544 45.9777 14.2622 47.0241 15.7592C47.3515 14.9757 47.7946 14.2235 48.1933 13.4703C48.8544 12.2421 49.4961 11.0049 50.1184 9.75875C51.7401 6.54263 53.2301 3.2611 54.9156 0.0741516L59.5754 0.0771007C60.7716 2.65418 62.0832 5.19488 63.3769 7.72924C64.5494 10.5012 66.2684 13.1044 67.3337 15.9189C65.6856 15.9346 64.0375 15.9346 62.3894 15.9189C61.8944 14.9003 61.4114 13.8766 60.9403 12.8479C58.41 12.8783 55.8796 12.876 53.3493 12.8408C52.8879 13.9025 52.3759 14.9421 51.8681 15.9843C48.5475 16.0313 45.2097 15.9466 41.8863 15.9587C41.2076 15.2678 40.6319 14.4865 40.0211 13.7421C39.3059 12.8706 38.5587 12.0252 37.879 11.1279C36.3834 12.5745 35.2279 14.3975 33.8259 15.9382L28.3477 15.9247C29.0714 14.9907 29.8816 14.0986 30.6435 13.1904C32.1197 11.4306 33.5844 9.677 35.1368 7.97583C34.3323 7.14706 33.6034 6.22017 32.8538 5.34587C31.3746 3.62084 29.905 1.89788 28.5094 0.110836C30.2816 -0.000237644 32.1223 0.0866773 33.9006 0.101408C35.1806 1.71566 36.6598 3.24372 37.8304 4.92618C39.2103 3.37896 40.312 1.61003 41.6982 0.065021ZM57.0984 4.28139C56.3651 6.1004 55.5657 7.88199 54.7469 9.66786C55.5889 9.66359 56.4313 9.65269 57.2732 9.65829L59.5103 9.66536C59.173 8.83982 57.4879 4.7167 57.0984 4.28139Z" fill="#FEFEFE"/>
<defs>
<linearGradient id="paint0_linear_1296_5749" x1="113.555" y1="0.0625" x2="113.555" y2="7.78648" gradientUnits="userSpaceOnUse">
<stop stop-color="#F6B767"/>
<stop offset="1" stop-color="#D0BE66"/>
</linearGradient>
<linearGradient id="paint1_linear_1296_5749" x1="136.332" y1="11.6347" x2="143.912" y2="14.7236" gradientUnits="userSpaceOnUse">
<stop stop-color="#9F6CD3"/>
<stop offset="1" stop-color="#4F80E9"/>
</linearGradient>
<linearGradient id="paint2_linear_1296_5749" x1="124.988" y1="-0.311831" x2="132.006" y2="5.14024" gradientUnits="userSpaceOnUse">
<stop stop-color="#FF719D"/>
<stop offset="1" stop-color="#E25DAA"/>
</linearGradient>
<linearGradient id="paint3_linear_1296_5749" x1="106.903" y1="3.65625" x2="106.903" y2="15.9693" gradientUnits="userSpaceOnUse">
<stop stop-color="#D9BB65"/>
<stop offset="1" stop-color="#9FD06B"/>
</linearGradient>
<linearGradient id="paint4_linear_1296_5749" x1="130.169" y1="6.5767" x2="137.502" y2="10.0604" gradientUnits="userSpaceOnUse">
<stop stop-color="#E65DA9"/>
<stop offset="1" stop-color="#9F68D3"/>
</linearGradient>
<linearGradient id="paint5_linear_1296_5749" x1="113.097" y1="2.00862" x2="111.752" y2="7.70094" gradientUnits="userSpaceOnUse">
<stop stop-color="#F0B867"/>
<stop offset="1" stop-color="#C2C368"/>
</linearGradient>
</defs>
</svg>
