<svg width="135" height="50" viewBox="0 0 135 50" fill="none" xmlns="http://www.w3.org/2000/svg">
<path d="M39.5599 39.6918L26.5695 47.1918C25.3945 47.8586 24.0602 48.193 22.7096 48.1591C21.359 48.1251 20.0431 47.7242 18.9031 46.9992L5.99449 39.4409C4.78652 38.7295 3.78326 37.7175 3.08232 36.5034C2.38137 35.2894 2.00661 33.9145 1.99449 32.5127L1.90309 17.5543C1.84517 16.2046 2.15581 14.8645 2.80173 13.6778C3.44764 12.4912 4.40444 11.5029 5.56947 10.8188L20.2919 2.31876C21.1762 1.78882 22.2219 1.59551 23.2372 1.77437C24.2526 1.95324 25.1693 2.4922 25.8193 3.29243C26.1453 3.7415 26.3737 4.25386 26.4899 4.79646C26.6061 5.33905 26.6076 5.89997 26.4942 6.44315C26.3808 6.98634 26.155 7.49976 25.8314 7.95051C25.5077 8.40126 25.0934 8.77933 24.615 9.06044L11.2998 16.7479C10.8489 17.0099 10.4755 17.3867 10.2175 17.8399C9.95956 18.2931 9.82618 18.8065 9.83106 19.328L9.89471 30.8382C9.8983 31.3641 10.0384 31.8801 10.3014 32.3355C10.5643 32.7909 10.9411 33.1703 11.3947 33.4363L21.3311 39.2466C21.7802 39.5115 22.2915 39.6527 22.813 39.6559C23.3345 39.6591 23.8475 39.5241 24.2998 39.2646L34.163 33.5701C34.614 33.308 34.9875 32.9312 35.2456 32.4779C35.5038 32.0247 35.6373 31.5112 35.6326 30.9896L35.5814 22.3589L26.8622 27.3929C25.995 27.9077 24.9677 28.0828 23.9789 27.8844C22.99 27.6861 22.1097 27.1284 21.508 26.3191C21.1822 25.8699 20.9539 25.3577 20.8378 24.8151C20.7216 24.2726 20.7203 23.7118 20.8337 23.1686C20.9471 22.6255 21.1728 22.112 21.4963 21.6612C21.8199 21.2105 22.2341 20.8324 22.7124 20.5512L37.3803 12.0827C37.9864 11.7105 38.6808 11.5072 39.3919 11.4936C40.1029 11.48 40.8046 11.6566 41.4245 12.0053C42.0443 12.354 42.5597 12.862 42.9173 13.4768C43.2748 14.0915 43.4615 14.7907 43.4581 15.5018L43.5606 32.7632C43.5555 34.1666 43.1837 35.5443 42.4819 36.7597C41.7801 37.9751 40.7728 38.9859 39.5599 39.6918Z" fill="#1D3E06" stroke="#5BC014" stroke-width="3"/>
<path d="M66.2004 35.0908C64.7018 35.0961 63.2201 34.7731 61.8597 34.1446C60.4992 33.5161 59.2928 32.5973 58.3254 31.4527C56.9267 29.7726 56.1118 27.6834 56.0036 25.4999C55.8954 23.3164 56.4996 21.1569 57.7254 19.3467C58.6552 17.9291 59.9748 16.8102 61.5254 16.1247C63.0577 15.3949 64.7419 15.0408 66.4383 15.0917C68.1348 15.1427 69.7947 15.5972 71.2804 16.4177C71.5572 16.5665 71.7954 16.7782 71.9757 17.0356C72.1561 17.293 72.2738 17.589 72.3193 17.9C72.3647 18.211 72.3368 18.5283 72.2376 18.8266C72.1385 19.1249 71.971 19.3958 71.7484 19.6177C71.4295 19.934 71.016 20.1375 70.5708 20.1971C70.1257 20.2566 69.6732 20.169 69.2824 19.9477C67.8509 19.1253 66.152 18.9035 64.5574 19.3307C63.4934 19.6049 62.5265 20.1691 61.7643 20.9605C61.0022 21.7519 60.4747 22.7394 60.2408 23.8129C60.0069 24.8865 60.0757 26.004 60.4396 27.0407C60.8034 28.0774 61.448 28.9928 62.3014 29.6847C62.9387 30.2203 63.685 30.6106 64.4884 30.8287C65.4026 31.0873 66.364 31.1324 67.2984 30.9604C68.2328 30.7884 69.1152 30.4039 69.8774 29.8367V27.3647H66.8774C66.3373 27.37 65.8172 27.1607 65.4315 26.7826C65.0458 26.4046 64.826 25.8888 64.8204 25.3487C64.826 24.8086 65.0458 24.2929 65.4315 23.9148C65.8172 23.5368 66.3373 23.3274 66.8774 23.3327H71.9344C72.2019 23.3299 72.4672 23.3798 72.7154 23.4797C72.9635 23.5795 73.1896 23.7273 73.3806 23.9145C73.5716 24.1017 73.7239 24.3248 73.8287 24.5709C73.9335 24.8169 73.9888 25.0812 73.9914 25.3487V30.7487C73.9889 31.0212 73.9316 31.2903 73.8229 31.5401C73.7141 31.7899 73.5562 32.0152 73.3584 32.2027C71.4405 34.0623 68.8718 35.0987 66.2004 35.0908Z" fill="#5BC014"/>
<path d="M86.2004 35.0908C84.7018 35.0961 83.2201 34.7731 81.8597 34.1446C80.4992 33.5161 79.2928 32.5973 78.3254 31.4527C76.9267 29.7726 76.1118 27.6834 76.0036 25.4999C75.8954 23.3164 76.4996 21.1569 77.7254 19.3467C78.6552 17.9291 79.9748 16.8102 81.5254 16.1247C83.0577 15.3949 84.7419 15.0408 86.4383 15.0917C88.1348 15.1427 89.7947 15.5972 91.2804 16.4177C91.5572 16.5665 91.7954 16.7782 91.9757 17.0356C92.1561 17.293 92.2738 17.589 92.3193 17.9C92.3647 18.211 92.3368 18.5283 92.2376 18.8266C92.1385 19.1249 91.971 19.3958 91.7484 19.6177C91.4295 19.934 91.016 20.1375 90.5708 20.1971C90.1257 20.2566 89.6732 20.169 89.2824 19.9477C87.8509 19.1253 86.152 18.9035 84.5574 19.3307C83.4934 19.6049 82.5265 20.1691 81.7643 20.9605C81.0022 21.7519 80.4747 22.7394 80.2408 23.8129C80.0069 24.8865 80.0757 26.004 80.4396 27.0407C80.8034 28.0774 81.448 28.9928 82.3014 29.6847C82.9387 30.2203 83.685 30.6106 84.4884 30.8287C85.4026 31.0873 86.364 31.1324 87.2984 30.9604C88.2328 30.7884 89.1152 30.4039 89.8774 29.8367V27.3647H86.8774C86.3373 27.37 85.8172 27.1607 85.4315 26.7826C85.0458 26.4046 84.826 25.8888 84.8204 25.3487C84.826 24.8086 85.0458 24.2929 85.4315 23.9148C85.8172 23.5368 86.3373 23.3274 86.8774 23.3327H91.9344C92.2019 23.3299 92.4672 23.3798 92.7154 23.4797C92.9635 23.5795 93.1896 23.7273 93.3806 23.9145C93.5716 24.1017 93.7239 24.3248 93.8287 24.5709C93.9335 24.8169 93.9888 25.0812 93.9914 25.3487V30.7487C93.9889 31.0212 93.9316 31.2903 93.8229 31.5401C93.7141 31.7899 93.5562 32.0152 93.3584 32.2027C91.4405 34.0623 88.8718 35.0987 86.2004 35.0908Z" fill="#5BC014"/>
<path d="M104.276 35.0003H103.989C102.047 34.8104 100.14 34.3568 98.321 33.6523C98.0664 33.5609 97.8328 33.419 97.6344 33.235C97.436 33.051 97.2769 32.8287 97.1666 32.5816C97.0563 32.3346 96.997 32.0678 96.9925 31.7972C96.9879 31.5267 97.0381 31.2579 97.1401 31.0073C97.3274 30.5329 97.6911 30.1496 98.1549 29.9375C98.6188 29.7253 99.1466 29.7009 99.628 29.8694C101.057 30.4272 102.55 30.8051 104.072 30.9944C105.19 31.0414 107.793 30.8634 108.011 28.9194C108.087 28.2514 107.568 27.7193 104.753 27.1053C104.537 27.0583 104.34 27.0163 104.17 26.9753L103.837 26.8963C101.918 26.4473 97.4201 25.3963 97.2721 21.4963C97.1931 19.3663 97.952 15.6964 103.946 15.0664C105.858 14.9173 107.781 15.1529 109.601 15.7594C109.906 15.8583 110.186 16.0222 110.422 16.2398C110.657 16.4575 110.843 16.7237 110.966 17.02C111.088 17.3163 111.145 17.6358 111.133 17.9563C111.12 18.2768 111.038 18.5906 110.892 18.8763L110.878 18.9023C110.695 19.2637 110.386 19.5459 110.01 19.6959C109.634 19.8459 109.216 19.8536 108.834 19.7174C108.717 19.6764 108.594 19.6353 108.466 19.5943C107.147 19.1387 105.749 18.9538 104.357 19.0504C101.164 19.3874 101.208 20.5633 101.238 21.3443C101.259 21.9053 102.438 22.4624 104.732 22.9974L105.092 23.0824C105.237 23.1174 105.403 23.1524 105.586 23.1924C107.472 23.6014 112.486 24.6863 111.954 29.3753C111.564 32.8593 108.632 35.0003 104.276 35.0003Z" fill="#F5F5FB"/>
<path d="M121.541 35.0014C119.751 35.002 118.015 34.3826 116.629 33.2485C115.837 32.6065 115.199 31.7949 114.761 30.8735C114.202 29.7348 113.938 28.4734 113.995 27.2058C114.052 25.9383 114.428 24.7056 115.088 23.6219C115.748 22.5381 116.67 21.6384 117.77 21.0059C118.87 20.3734 120.112 20.0287 121.38 20.0035C123.091 19.998 124.755 20.5618 126.11 21.6059C127.465 22.65 128.434 24.115 128.864 25.7704C128.927 26.0722 128.968 26.378 128.987 26.6855C129.017 27.0395 128.973 27.3958 128.857 27.7317C128.742 28.0677 128.558 28.3759 128.317 28.637C128.076 28.8981 127.783 29.1064 127.458 29.2485C127.132 29.3905 126.781 29.4634 126.425 29.4624H118.529C118.791 29.8582 119.128 30.1985 119.522 30.4639C119.915 30.7293 120.356 30.9148 120.821 31.0094C121.686 31.1833 122.584 31.0413 123.352 30.6094C123.681 30.4072 124.064 30.31 124.45 30.3307C124.835 30.3514 125.205 30.4891 125.51 30.7254L125.696 30.8775C125.927 31.0629 126.109 31.3006 126.229 31.5711C126.349 31.8415 126.402 32.1367 126.384 32.4319C126.366 32.7271 126.278 33.0138 126.127 33.2679C125.975 33.522 125.765 33.736 125.514 33.8924C124.316 34.617 122.942 35.0005 121.541 35.0014ZM118.541 25.5404H124.581C124.267 25.0689 123.847 24.6776 123.354 24.3977C122.861 24.1179 122.31 23.9572 121.744 23.9287C121.178 23.9003 120.613 24.0047 120.094 24.2337C119.576 24.4627 119.119 24.8099 118.758 25.2475C118.682 25.3413 118.61 25.439 118.543 25.5404H118.541Z" fill="#F5F5FB"/>
<path d="M134.996 17.0005C134.996 15.8959 134.101 15.0005 132.996 15.0005C131.892 15.0005 130.996 15.8959 130.996 17.0005V33.0005C130.996 34.1051 131.892 35.0005 132.996 35.0005C134.101 35.0005 134.996 34.1051 134.996 33.0005V17.0005Z" fill="#F5F5FB"/>
</svg>
