<svg width="32" height="32" xmlns="http://www.w3.org/2000/svg">
    <g fill-rule="nonzero" fill="none">
        <path d="M16 0C7.165 0 0 7.188 0 16.051a15.99 15.99 0 0 0 .816 5.069H5.6V7.615L16 18.048 26.4 7.615V21.12h4.784c.541-1.635.817-3.346.816-5.069C32 7.188 24.835 0 16 0" fill="#FA6800"/>
        <path d="m13.603 20.366-4.539-4.539v8.466H2.325c2.808 4.606 7.878 7.683 13.667 7.683 5.79 0 10.859-3.077 13.664-7.683h-6.74v-8.466l-4.535 4.539-2.389 2.389-2.39-2.39z" fill="#4C4C4C"/>
    </g>
</svg>