<svg xmlns="http://www.w3.org/2000/svg" viewBox="0 0 610 611"><defs><style>.cls-1{fill:#ff0013;}.cls-2{fill:#fff;}</style></defs><g id="Слой_2" data-name="Слой 2"><g id="Слой_1-2" data-name="Слой 1"><ellipse class="cls-1" cx="305" cy="305.5" rx="305" ry="305.5"/><path class="cls-2" d="M508.33,250c-19.06-17.63-45.43-44.56-66.91-63.65l-1.27-.89a24.24,24.24,0,0,0-7-3.95h0c-51.79-9.67-292.8-54.8-297.5-54.22a8.79,8.79,0,0,0-3.69,1.4l-1.2,1A14.16,14.16,0,0,0,127.4,135l-.32.83V141c27.14,75.68,134.27,323.58,155.36,381.75,1.27,4,3.69,11.46,8.2,11.84h1c2.41,0,12.7-13.62,12.7-13.62S488.38,297.49,507,273.68a59.34,59.34,0,0,0,6.35-9.42,15.31,15.31,0,0,0-5-14.25ZM351.58,276l78.53-65.24,46.07,42.52Zm-30.5-4.27-135.22-111,218.77,40.41Zm12.2,29.09,138.39-22.34L313.45,469.46Zm-165.78-129L309.77,292.78l-20.59,176.8Z"/></g></g></svg>