<?xml version="1.0" encoding="utf-8"?>
<!-- Generator: Adobe Illustrator 26.2.1, SVG Export Plug-In . SVG Version: 6.00 Build 0)  -->
<svg version="1.1" id="Слой_1" xmlns="http://www.w3.org/2000/svg" xmlns:xlink="http://www.w3.org/1999/xlink" x="0px" y="0px"
	 viewBox="0 0 1287.6 1071.6" style="enable-background:new 0 0 1287.6 1071.6;" xml:space="preserve">
<style type="text/css">
	.st0{fill:#009393;}
	.st1{fill-rule:evenodd;clip-rule:evenodd;fill:#FFFFFF;}
	.st2{fill-rule:evenodd;clip-rule:evenodd;fill:#009393;}
	.st3{display:none;fill:#FFFFFF;}
	.st4{fill:#FF0013;}
	.st5{fill:#FFFFFF;}
</style>
<path class="st0" d="M1071.6,535.8c0,295.9-239.9,535.8-535.8,535.8S0,831.8,0,535.8C0,239.9,239.9,0,535.8,0
	C831.8,0,1071.6,239.9,1071.6,535.8z"/>
<path class="st1" d="M849.4,220.1v113.3H615.1V412c164.6,8.4,288,42.9,289,84.3v86.2c-0.9,41.3-124.4,75.8-289,84.3v192.7H459.5
	V666.6c-164.6-8.4-288-42.9-289-84.3v-86.2c0.9-41.3,124.4-75.8,289-84.3v-78.4H225.3V220.1H849.4z"/>
<path class="st2" d="M537.4,606.9c175.6,0,322.4-29.2,358.3-68.1c-30.5-33-140.6-59-280.5-66.2v82.3c-25.1,1.3-51.1,2-77.8,2
	c-26.7,0-52.7-0.7-77.8-2v-82.3c-139.9,7.2-250.1,33.2-280.5,66.2C214.9,577.8,361.7,606.9,537.4,606.9z"/>
<path class="st3" d="M787.3,270.2H279.9v122.5h192.4v180h122.5v-180h192.4V270.2H787.3z"/>
<path class="st3" d="M534.8,591.9c-159.2,0-288.3-25.2-288.3-56.3s129.1-56.3,288.3-56.3S823,504.5,823,535.6S694,591.9,534.8,591.9
	z M858.4,545c0-40.1-144.9-72.6-323.7-72.6C356,472.4,211,504.9,211,545c0,35.3,112.4,64.7,261.3,71.2v258.4h122.5V616.3
	C744.9,610,858.4,580.5,858.4,545z"/>
<ellipse class="st4" cx="982.6" cy="554" rx="305" ry="305.5"/>
<path class="st5" d="M1185.9,498.5c-19.1-17.6-45.4-44.6-66.9-63.6l-1.3-0.9c-2.1-1.7-4.5-3-7.1-3.9l0,0
	c-51.8-9.7-292.8-54.8-297.5-54.2c-1.3,0.2-2.6,0.7-3.7,1.4l-1.2,1c-1.5,1.5-2.6,3.3-3.3,5.3l-0.3,0.8v4.5v0.7
	C831.8,465.2,939,713.1,960,771.3c1.3,3.9,3.7,11.5,8.2,11.8h1c2.4,0,12.7-13.6,12.7-13.6s184-223.5,202.6-247.3
	c2.4-2.9,4.5-6.1,6.3-9.4c0.5-2.6,0.2-5.3-0.6-7.8C1189.4,502.5,1187.9,500.3,1185.9,498.5L1185.9,498.5z M1029.2,524.5l78.5-65.2
	l46.1,42.5L1029.2,524.5z M998.7,520.3l-135.2-111l218.8,40.4L998.7,520.3z M1010.9,549.4l138.4-22.3L991.1,718L1010.9,549.4z
	 M845.1,420.4l142.3,120.9l-20.6,176.8L845.1,420.4z"/>
</svg>
