<svg width="32" height="32" xmlns="http://www.w3.org/2000/svg">
    <g fill-rule="nonzero" fill="none">
        <path d="M16 32C7.19 32 0 24.802 0 16 0 7.19 7.198 0 16 0c8.81 0 16 7.198 16 16 0 8.81-7.19 16-16 16z" fill="#ECB244"/>
        <path d="M14.99 20.334h6.933v3.467h-4.091v2.933h-3.558v-2.842h-4.266c0-1.158-.176-2.31.09-3.376.091-.534.71-1.067 1.158-1.6 1.333-1.6 2.667-3.2 4.091-4.8.533-.624 1.067-1.158 1.69-1.867h-6.666V8.782h3.91V5.85h3.466v2.843h4.267c0 1.157.175 2.309-.091 3.375-.091.534-.71 1.067-1.158 1.6-1.333 1.6-2.666 3.2-4.09 4.8a33.465 33.465 0 0 1-1.686 1.867z" fill="#FFF"/>
    </g>
</svg>